<?xml version="1.0" encoding="utf-8"?>
<!-- Generator: Adobe Illustrator 25.0.0, SVG Export Plug-In . SVG Version: 6.00 Build 0)  -->
<svg version="1.1" id="Layer_1" xmlns="http://www.w3.org/2000/svg" xmlns:xlink="http://www.w3.org/1999/xlink" x="0px" y="0px"
	 viewBox="0 0 47 25" style="enable-background:new 0 0 47 25;" xml:space="preserve">
<style type="text/css">
	.st0{fill:none;stroke:#000000;stroke-miterlimit:10;}
</style>
<g>
	<path d="M11.9,2.2c5.7,0,10.3,4.6,10.3,10.3s-4.6,10.3-10.3,10.3S1.6,18.2,1.6,12.5S6.2,2.2,11.9,2.2 M11.9,1.2
		c-6.2,0-11.3,5-11.3,11.3c0,6.2,5,11.3,11.3,11.3c6.2,0,11.3-5,11.3-11.3C23.2,6.3,18.1,1.2,11.9,1.2L11.9,1.2z"/>
</g>
<g>
	<path d="M35.1,2.2c5.7,0,10.3,4.6,10.3,10.3s-4.6,10.3-10.3,10.3s-10.3-4.6-10.3-10.3S29.4,2.2,35.1,2.2 M35.1,1.2
		c-6.2,0-11.3,5-11.3,11.3c0,6.2,5,11.3,11.3,11.3c6.2,0,11.3-5,11.3-11.3C46.3,6.3,41.3,1.2,35.1,1.2L35.1,1.2z"/>
</g>
<g>
	<polyline class="st0" points="13.9,8.2 9.5,12.5 14,16.9 	"/>
</g>
<g>
	<polyline class="st0" points="33.2,16.9 37.5,12.6 33.1,8.2 	"/>
</g>
</svg>
