<?xml version="1.0" encoding="UTF-8"?><svg id="Layer_2" xmlns="http://www.w3.org/2000/svg" viewBox="0 0 108.68 108.68"><defs><style>.cls-1{fill:#fff;stroke-width:0px;}</style></defs><g id="Layer_1-2"><path class="cls-1" d="m60.4,53.55v-.08c1.16-.56,2.05-1.37,2.67-2.4s.93-2.27.93-3.72c0-2.39-.69-4.17-2.05-5.36s-3.18-1.77-5.45-1.77h-12.27v28.75h11.6c1.63,0,3.03-.21,4.21-.63s2.14-.98,2.9-1.69c.76-.71,1.31-1.55,1.66-2.54.35-.97.53-2.03.53-3.16,0-1.96-.4-3.59-1.2-4.9-.8-1.3-1.98-2.13-3.54-2.51Zm-10.97-8.67h6.2c1.03,0,1.82.26,2.37.76.55.51.82,1.38.82,2.63,0,1.11-.3,1.95-.91,2.55s-1.37.89-2.28.89h-6.2v-6.82Zm9.55,18.37c-.64.7-1.55,1.04-2.73,1.04h-6.82v-7.84h6.82c1.17,0,2.07.32,2.73,1,.65.67.97,1.62.97,2.87s-.33,2.25-.97,2.94Z"/><path class="cls-1" d="m54.34,8.34c-25.36,0-46,20.64-46,46s20.64,46,46,46,46-20.64,46-46S79.71,8.34,54.34,8.34Zm32.24,46.14v1.95s-6.57,2.71-6.57,12.67h0v5.3c0,3.77-3.05,6.82-6.82,6.82h-37.69c-3.77,0-6.82-3.05-6.82-6.82v-5.3c0-9.96-6.57-12.67-6.57-12.67v-3.89s6.57-2.71,6.57-12.67v-5.3c0-3.76,3.05-6.82,6.82-6.82h37.69c3.77,0,6.82,3.05,6.82,6.82v5.3h0c0,9.96,6.57,12.67,6.57,12.67v1.95Z"/><path class="cls-1" d="m54.34,0C24.33,0,0,24.33,0,54.34s24.33,54.34,54.34,54.34,54.34-24.33,54.34-54.34S84.35,0,54.34,0Zm0,104.34c-27.61,0-50-22.39-50-50S26.73,4.34,54.34,4.34s50,22.39,50,50-22.39,50-50,50Z"/></g></svg>