<?xml version="1.0" encoding="UTF-8"?><svg id="Layer_2" xmlns="http://www.w3.org/2000/svg" xmlns:xlink="http://www.w3.org/1999/xlink" viewBox="0 0 108.68 108.68"><defs><style>.cls-1{filter:url(#drop-shadow-1);}.cls-2{fill:#fff;stroke-width:0px;}</style><filter id="drop-shadow-1" filterUnits="userSpaceOnUse"><feOffset dx="1" dy="1"/><feGaussianBlur result="blur" stdDeviation="3"/><feFlood flood-color="#000" flood-opacity=".75"/><feComposite in2="blur" operator="in"/><feComposite in="SourceGraphic"/></filter></defs><g id="Layer_1-2"><g class="cls-1"><path class="cls-2" d="m54.34,0C24.33,0,0,24.33,0,54.34s24.33,54.34,54.34,54.34,54.34-24.33,54.34-54.34S84.35,0,54.34,0Zm0,104.34c-27.61,0-50-22.39-50-50S26.73,4.34,54.34,4.34s50,22.39,50,50-22.39,50-50,50Z"/><path class="cls-2" d="m54.34,8.34c-25.36,0-46,20.64-46,46s20.64,46,46,46,46-20.64,46-46S79.71,8.34,54.34,8.34Zm-19.74,18.96c3.49,0,6.41,2.45,7.13,5.73.97-.25,1.97-.37,2.97-.37,3.08,0,6.16,1.18,8.51,3.53l.24.24-5.6,5.6-.24-.24c-.78-.78-1.81-1.21-2.91-1.21s-2.13.43-2.91,1.21c-1,1-1.38,2.39-1.13,3.68.15.78.52,1.53,1.13,2.14l.65.65.47.47,5.6,5.6,1.65,1.65,1.85,1.85,1.46,1.46-5.6,5.6-1.46-1.46-1.85-1.85-1.65-1.65-5.6-5.6-.47-.47-.65-.65c-.67-.67-1.25-1.41-1.73-2.19-1.74-2.81-2.22-6.18-1.43-9.3-3.28-.72-5.73-3.63-5.73-7.13,0-4.03,3.27-7.3,7.3-7.3Zm19.19,44.61l-.3.3c-.47.47-.98.89-1.5,1.27-3,2.16-6.77,2.77-10.2,1.83-.59,3.44-3.58,6.07-7.19,6.07-4.03,0-7.3-3.27-7.3-7.3,0-3.61,2.63-6.6,6.07-7.19-.29-1.04-.43-2.12-.43-3.19,0-3.07,1.17-6.14,3.5-8.49l5.6,5.6c-.76.77-1.18,1.8-1.18,2.88s.43,2.13,1.21,2.91,1.81,1.21,2.91,1.21c.4,0,.8-.06,1.18-.17.65-.19,1.24-.54,1.73-1.03l.3-.3.55-.55,5.6-5.6,1.57-1.58,2.78-2.78.6-.6,5.6,5.6-.6.6-2.78,2.78-1.58,1.57-5.6,5.6-.55.55Zm20.28,9.46c-3.61,0-6.6-2.63-7.19-6.07-1.04.29-2.12.43-3.19.43-3.07,0-6.13-1.17-8.48-3.49l5.6-5.6c.77.75,1.79,1.17,2.87,1.17s2.13-.43,2.91-1.21,1.21-1.81,1.21-2.91c0-.26-.03-.52-.07-.77-.15-.81-.54-1.55-1.13-2.14l-.29-.29-.56-.56-5.6-5.6-1.57-1.57-1.94-1.94-1.46-1.46,5.6-5.6,1.46,1.46,1.94,1.94,1.57,1.57,5.6,5.6.56.56.29.29c.77.77,1.42,1.63,1.94,2.54,1.61,2.81,1.99,6.12,1.16,9.17,3.44.59,6.07,3.58,6.07,7.19,0,4.03-3.27,7.3-7.3,7.3Zm1.57-39.65c.25.97.37,1.97.37,2.97,0,3.08-1.18,6.16-3.53,8.51l-.25.25-5.6-5.6.25-.25c.78-.78,1.21-1.81,1.21-2.91s-.43-2.13-1.21-2.91c-1.01-1.01-2.42-1.38-3.72-1.12-.77.15-1.51.53-2.1,1.12l-.61.61-.51.51-5.6,5.6-1.61,1.61-1.04,1.04-2.3,2.3-5.6-5.6,2.3-2.3,1.04-1.04,1.61-1.61,5.6-5.6.51-.51.61-.61c.99-.99,2.1-1.76,3.29-2.33,2.57-1.24,5.48-1.51,8.2-.82.72-3.28,3.63-5.73,7.13-5.73,4.03,0,7.3,3.27,7.3,7.3,0,3.49-2.45,6.41-5.73,7.13Z"/></g></g></svg>