<?xml version="1.0" encoding="UTF-8"?><svg id="Layer_2" xmlns="http://www.w3.org/2000/svg" viewBox="0 0 100 100"><defs><style>.cls-1{fill:#fff;stroke-width:0px;}</style></defs><g id="Layer_1-2"><path class="cls-1" d="m50,4c25.36,0,46,20.64,46,46s-20.64,46-46,46S4,75.36,4,50,24.64,4,50,4m0-4C22.39,0,0,22.39,0,50s22.39,50,50,50,50-22.39,50-50S77.61,0,50,0h0Z"/><path class="cls-1" d="m28.69,37.39c-.79,3.12-.31,6.49,1.43,9.3.48.78,1.05,1.51,1.73,2.19l.65.65.47.47,5.6,5.6,1.65,1.65,1.85,1.85,1.46,1.46,5.6-5.6-1.46-1.46-1.85-1.85-1.65-1.65-5.6-5.6-.47-.47-.65-.65c-.61-.61-.98-1.36-1.13-2.14-.24-1.29.13-2.68,1.13-3.68.78-.78,1.81-1.21,2.91-1.21s2.13.43,2.91,1.21l.24.24,5.6-5.6-.24-.24c-2.35-2.35-5.43-3.53-8.51-3.53-1,0-2,.13-2.97.37-.72-3.28-3.63-5.73-7.13-5.73-4.03,0-7.3,3.27-7.3,7.3,0,3.49,2.45,6.41,5.73,7.13Z"/><path class="cls-1" d="m70.97,62.55c.84-3.05.45-6.36-1.16-9.17-.52-.91-1.16-1.76-1.94-2.54l-.29-.29-.56-.56-5.6-5.6-1.57-1.57-1.94-1.94-1.46-1.46-5.6,5.6,1.46,1.46,1.94,1.94,1.57,1.57,5.6,5.6.56.56.29.29c.59.59.98,1.34,1.13,2.14.05.25.07.51.07.77,0,1.1-.43,2.13-1.21,2.91-.78.78-1.81,1.21-2.91,1.21s-2.1-.42-2.87-1.17l-5.6,5.6c2.35,2.33,5.41,3.49,8.48,3.49,1.07,0,2.15-.15,3.19-.43.59,3.44,3.58,6.07,7.19,6.07,4.03,0,7.3-3.27,7.3-7.3,0-3.61-2.63-6.6-6.07-7.19Z"/><path class="cls-1" d="m42.79,40.18l-1.04,1.04-2.3,2.3,5.6,5.6,2.3-2.3,1.04-1.04,1.61-1.61,5.6-5.6.51-.51.61-.61c.6-.6,1.33-.97,2.1-1.12,1.31-.26,2.71.11,3.72,1.12.78.78,1.21,1.81,1.21,2.91s-.43,2.13-1.21,2.91l-.25.25,5.6,5.6.25-.25c2.35-2.35,3.53-5.43,3.53-8.51,0-1-.13-2-.37-2.97,3.28-.72,5.73-3.63,5.73-7.13,0-4.03-3.27-7.3-7.3-7.3-3.49,0-6.41,2.45-7.13,5.73-2.72-.69-5.63-.42-8.2.82-1.19.57-2.3,1.35-3.29,2.33l-.61.61-.51.51-5.6,5.6-1.61,1.61Z"/><path class="cls-1" d="m57.18,59.85l2.78-2.78.6-.6-5.6-5.6-.6.6-2.78,2.78-1.57,1.58-5.6,5.6-.55.55-.3.3c-.49.49-1.09.84-1.73,1.03-.38.11-.77.17-1.18.17-1.1,0-2.13-.43-2.91-1.21-.78-.78-1.21-1.81-1.21-2.91s.42-2.11,1.18-2.88l-5.6-5.6c-2.33,2.35-3.5,5.42-3.5,8.49,0,1.07.15,2.15.43,3.19-3.44.59-6.07,3.58-6.07,7.19,0,4.03,3.27,7.3,7.3,7.3,3.61,0,6.6-2.63,7.19-6.07,3.44.94,7.2.33,10.2-1.83.52-.38,1.03-.8,1.5-1.27l.3-.3.55-.55,5.6-5.6,1.58-1.57Z"/></g></svg>