<?xml version="1.0" encoding="UTF-8"?><svg id="Layer_2" xmlns="http://www.w3.org/2000/svg" viewBox="0 0 108.68 108.68"><defs><style>.cls-1{fill:#fff;stroke-width:0px;}</style></defs><g id="Layer_1-2"><path class="cls-1" d="m54.34,0C24.33,0,0,24.33,0,54.34s24.33,54.34,54.34,54.34,54.34-24.33,54.34-54.34S84.35,0,54.34,0Zm0,104.34c-27.61,0-50-22.39-50-50S26.73,4.34,54.34,4.34s50,22.39,50,50-22.39,50-50,50Z"/><path class="cls-1" d="m55.83,47.48v14c3.87,0,7-3.13,7-7s-3.13-7-7-7Z"/><path class="cls-1" d="m83.35,48.64c0-1.24-1.15-1.8-2.57-1.8v3.6c.5,0,.97-.07,1.36-.22.73-.26,1.21-.78,1.21-1.58Z"/><path class="cls-1" d="m54.34,8.34c-25.36,0-46,20.64-46,46s20.64,46,46,46,46-20.64,46-46S79.71,8.34,54.34,8.34Zm-17.04,58.79l-.68-10.15-3.4,10.15h-5.97l-3.75-10.77-.75,10.77h-5.97l1.56-25.57h0s6.2,0,6.2,0l5.64,16.6,5.41-16.6h6.2l1.48,25.57h-5.97Zm18.52,0h-6.2v-25.57h6.2c7.06,0,12.78,5.72,12.78,12.78s-5.72,12.79-12.78,12.79Zm24.95,0h-5.97l-.07-8.38-.15-17.19h6.2c4.5,0,8.15,1.72,8.15,6.17,0,1.56-.44,2.78-1.22,3.71,2.86,1.27,4.71,3.58,4.71,7.22,0,6.11-5.21,8.47-11.64,8.47Z"/><path class="cls-1" d="m80.78,55.62v6.25c3.17,0,5.74-.51,5.74-3.12s-2.57-3.12-5.74-3.12Z"/></g></svg>