<?xml version="1.0" encoding="utf-8"?>
<!-- Generator: Adobe Illustrator 26.3.1, SVG Export Plug-In . SVG Version: 6.00 Build 0)  -->
<svg version="1.1" id="Layer_1" xmlns="http://www.w3.org/2000/svg" xmlns:xlink="http://www.w3.org/1999/xlink" x="0px" y="0px"
	 viewBox="0 0 1000 1000" style="enable-background:new 0 0 1000 1000;" xml:space="preserve">
<style type="text/css">
	.st0{fill:#CECCD1;}
	.st1{fill:#F0ECF2;}
	.st2{fill:#E7E9ED;}
	.st3{fill:#C5C3CC;}
	.st4{fill:#EBE9EB;}
	.st5{fill:#D5D2D5;}
	.st6{fill:#737277;}
	.st7{fill:#A1A3AA;}
	.st8{fill:#979299;}
	.st9{fill:#938E94;}
	.st10{fill:#B1ADB0;}
	.st11{fill:#847E82;}
	.st12{fill:#8D868D;}
	.st13{fill:#BDB6BB;}
	.st14{fill:#969195;}
	.st15{fill:#CBC7CB;}
	.st16{fill:#BDB7B6;}
	.st17{fill:#E4E1E8;}
	.st18{fill:#E0DFE5;}
	.st19{fill:#C6BFC0;}
	.st20{fill:#9D9A9F;}
	.st21{fill:#CFCCD1;}
	.st22{fill:#F8EFF7;}
	.st23{fill:#959297;}
	.st24{fill:#DEDADD;}
	.st25{fill:#C1BFC6;}
	.st26{fill:#B9B7BD;}
	.st27{fill:#FDFCFF;}
	.st28{fill:#B8B6BB;}
	.st29{fill:#FFFFFF;}
	.st30{fill:#12130F;}
</style>
<g id="XMLID_00000151539351125964412110000009165810770043406500_">
	<path class="st0" d="M744.8,524.8c4.1-2.8,11,3.4,6.3,13.5c-4.7,10.1,0.6,20.1,0.6,20.1c-16.8,17.5-50.9,41.3-49.8,19.3
		c1.2-23.9,4.5-69.2-5.7-87c0,0,0,0,0,0c0-0.6,0.5-25-5.1-38.4c-5.7-13.5-5.7-30.4,2.2-24.8c7.8,5.6,12.2,23.8,17.9,20.4
		c5.7-3.5,31.7,5,29.5,9.4c-2.2,4.4-0.6,15.7,1.3,19.5c1.9,3.8-7.5,9.1-11.9,20.1c-4.4,11,12.6-1.6,8.2,11.9
		C733.8,522.3,734.5,531.8,744.8,524.8z"/>
	<path class="st1" d="M599.5,115.4c13.5,0.4,17.2,4.9,11.6,15.6c-1.8-1.5-3.9-2-6.5-0.3c-7.1,4.4-8.9,5.5-22.1-3.7
		c-10.5-7.3-23.5-4.6-29.9-1.9c0.1-0.4,2.6-14.8,6.6-11.4c4,3.5,6.9-13.1,15.3-6.1C582.9,114.6,586,115,599.5,115.4z"/>
	<path class="st2" d="M865,389.8c1.3,8.2,11.9,12.6,7.8,20.4c-4.1,7.9-28.2,8.8-40.8,10.4c-12.6,1.6-16.6,7.8-7.2,12.1
		c9.4,4.2,6.6,14.3,13.5,22c6.9,7.7,3.8,24-3.8,20.9c-7.5-3.1-30.1,23.8-28.6,15.1c1.6-8.8-17.3,13.8-23.5,22.3
		c-6.3,8.5-9.1-22-9.7-31.5s6.9-12.7,2.8-16.2c-4.1-3.4,4.7-18.2-7.2-12.2c-11.9,6-14.1,11-10.6,19.1c3.5,8.2-3.9,20.4-7.9,31.1
		c-4.1,10.7,10.7,7.8,15.1,13.5c4.4,5.6-2.1,26.3-2.1,26.3c-0.8,0.6-1.7,1.9-2.5,3.9c-1.1,2.8-4.3,6.9-8.6,11.5
		c0,0-5.3-10.1-0.6-20.1c4.7-10-2.2-16.3-6.3-13.5c-10.2,7-10.9-2.5-6.5-16c4.4-13.5-12.6-0.9-8.2-11.9c4.4-11,13.8-16.3,11.9-20.1
		c-1.9-3.8-3.5-15.1-1.3-19.5c2.2-4.4-23.8-12.9-29.5-9.4c-5.7,3.5-10-14.8-17.9-20.4c-7.9-5.7-7.9,11.3-2.2,24.8
		c5.6,13.3,5.1,37.8,5.1,38.4c-1.6-2.8-3.6-5-6-6.2c-14.3-7.3-12.1-1.1-9.8,11c0,0-18.4-1.1-24.1-11.2c-5.7-10-0.9-17.9,9.7-11.9
		c10.7,6-1.6-25.1-7.2-39.7c-5.6-14.6-18.2-19-22.9-14.9c-4.7,4.1-11.3,16.6-13.2,25.7c-1.9,9.1-10.3,0.3-17.2-10.9
		c-6.9-11.2,1.6-12.4,11.9-18.6c10.4-6.3,3.5-15.4-3.1-22.3c-6.6-6.9-21.4,5-29.5-3.9c-8.2-9-12.6-17.4-11.3-24.9
		c1.3-7.5-6.3-8.8-12.2-2.7c-2.1,2.1-2.4,0-2-3.7c0.8-6.9,4.4-19.4,4.4-19.4c0.9-0.4,1.8-1,2.8-1.6c15.5-9.7,30.4-19.4,41.5-15
		c10.3,7.7,9.4,14.8,4.2,18.6s19.3,3.5,16.2,11.5c-3.1,8-4.7,26.8,4.9,23.5c9.7-3.3,28.7-9.2,25.2-16.9c-3.5-7.8,2.8-22.4,7.1-13.9
		c4.2,8.5,9.9,19.8,14.6,12.7s-4.2-17.2,2.6-20.5c6.8-3.3,24.2-10.6,19.3-2.8s-9.9,15.1-4.2,19.5c5.7,4.5,9.4,22.4,14.4,26.1
		c4.9,3.8,32.5,14.6,33.9,6.6c1.4-8-0.2-15.3,11.3-16.5c0,0,15.5,12.3,12.9,23.6c-2.5,11.3,4.1,18.8,3.5,34.4
		c-0.6,15.5,22.9,4.6,23.5-2.7c0.6-7.2-5-32-8.2-43.3c-3.1-11.3,2.5-6.3,9.4-0.9c6.9,5.3,3.5-17-8.5-31.1
		c-11.9-14.1-10-23.5,8.2-24.2c18.2-0.6-4.7-3.8-13.5-8.2c-8.8-4.4-16.9-6.3-10-15.4c6.9-9.1,11.9,0.3,11.9,6.7
		c0,6.3,10,7.2,17.9,3.9c7.8-3.3,21-1.4,23.2,6.7c2.2,8.2-1.9,16.6-6.6,19.1c-4.7,2.5-33.3-9.1-28.6,0c4.7,9.1,19.5,14.1,18.9,23
		c-0.5,8.9,7.4,12.1,18.7,16.8s14.1-14.1,20.3-9.1C856.6,372.9,863.8,381.7,865,389.8z"/>
	<path class="st3" d="M923.4,524.5c19.5,4.7,17.7,14.8,16.2,27c-0.1,0.8,0,1.6,0.2,2.2c0,0-35.8,25.1-25,32.8
		c10.8,7.7-1.9,29.8-6.6,24.2c-4.7-5.6-10.8-21.7-18.8-8c-8,13.7,5.2,25.8-1.9,35c-7.1,9.2-28.7,31.3-13.7,35.6
		c15.1,4.2-13.6,49.4,2.8,40.5c16.5-8.9,29.1-3.8,25.2,10.4c-4,14.1,30.9-12.7,22.9,8.9c-8,21.7,1.4,28.7,1.4,28.7
		c-27.8,45.1-62.5,85.5-102.7,119.6c-3.8-10.8-27.7,0.9-38.7,2.3c-11,1.4-34.6-43.8-39.9-52.7s-16.4-24.5-21.6-39.5
		c-5.2-15.1,9.9,1.4,19.3,9.8s25.4,28.3,27.8,41c2.4,12.7,14.6-3.3,14.4-9.9c-0.2-6.6-16.3-20.2-32.8-36.7
		c-16.5-16.5,29.7,10.4,53.2,25.4c23.5,15.1,1.9-8.9,0.9-17.4c-0.9-8.5,12.2-15.1,25.4-14.1c13.2,0.9,1.4-7.5-8.5-9
		c-9.9-1.4-16-6.1-17.4-16.5c-1.4-10.4-13.2-19.8-25.9-26.4c-12.7-6.6-11.8-25.9,10.8-23.5c22.6,2.4,27.8,8,34.4,16.5
		c6.6,8.5,27.8,3.8,23.5-3.8c-4.2-7.5-31.1-19.8-51.3-32c-20.3-12.2,24.5-24.9,24.9-35.8c0.5-10.8,26.4-24,26.4-38.6
		c0-14.6-36.7,24.5-57.4,37.2c-20.7,12.7-16.5-17.9-2.8-28.7c13.7-10.8,29.7-23.1,19.3-37.7c-10.4-14.6,17.4-3.8,22.1,3.3
		c4.7,7.1,17.4-14.1,7.5-26.8c0,0,16.9-5.7,16.9,10.3c0,16,16-8.9,31.5-19.8c15.5-10.8,35.7-34.5,35.7-34.5
		C921.9,524.1,922.6,524.3,923.4,524.5z"/>
	<path class="st4" d="M299.6,565.1c4.2,0.7,7.6,3.6,3.9,8.5c-3.8,4.8-14.4,4.7-18.2,8.7c-3.9,4-6.5,1.3-6.7-2.4
		c-0.2-3.6-4.8-4.1-5.3-10.4c-0.5-6.2,1.8-7.1-0.8-11.1c-2.6-4,2-10.9,5.1-8.9c7.8,4.8,10,8,12.2,4.8c2.2-3.2,6.1-3.6,6,0.1
		C295.5,558.3,295.3,564.4,299.6,565.1z"/>
	<path class="st5" d="M44.3,369.1c-15,17.7-15.5,30.2-21.1,53.5c6.3-36.3,18.2-84.9,22.9-95.3c4.7-10.4,22-11,26.7-22.6
		c-2.8,9.1-3.4,17.9-1.5,23.6c2.8,8.5,35.3-12.7,30.4-31.8c-4.9-19.1,27.5-48.7,41-50.1c13.4-1.4,24-4.9,30.4-14.8
		c6.4-9.9,12,9.2,41.7,0c29.7-9.2,20.5-50.8,45.2-45.9c24.7,4.9,69.2-21.2,59.3,7.1c-7.4,21.2-47.3,28.2-45.9,44.5
		c1.4,16.2,20.5,17,17.7,34.6c-2.8,17.7,29,15.5,33.2,29c0.8,2.5,3,5,6.1,7.3v0c-5.4,15.7-5.9,24.3,8.7,30.9
		c14.6,6.6-2.8,11.3-2.4,16c0.5,4.7,16.5,7.5,9.4,14.1c-7.1,6.6-7.5,18.8,3.8,38.5c11.3,19.7-5.7,17-15.1,24.1
		c-2.2,1.6-3.9,3.2-5.4,4.6c-5.2,4.7-8.4,8-20,7.6c-2.3-0.1-4.5-0.3-6.6-0.8c-11.8-2.4-19.1-10-4.7-14.8c17-5.6,0-19.3,0-31.1
		s-17-12.2-19.3-0.5s-15.5,11.8-29.7,10.8c-14.1-1-11.8,7.1-15.1,17.5c-3.3,10.4-15.5,23.1-21.2,10.8c-5.7-12.2-1.4-27.8,10.8-32.5
		s6.6-21.7,6.6-30.1c0-8.5,10.4-1.9,22.1-4.7c11.8-2.8,31.5-11.3,40.5-9.4c9,1.9,9.9-24,5.7-32.5c-4.2-8.5-34.4,23.5-57.4,30.1
		c-23.1,6.6-0.5-13.7,0.9-25.9c1.4-12.2-20.7-10.4-15.1-23.5c5.6-13.2,24.9-5.2,49.9,1.9c25,7.1,8.5-4.7,9.4-12.7
		c0.9-8-14.1-4.7-13.2-13.2c0.9-8.5-4.7-12.7-17-9.9c-12.2,2.8-22.6,4.2-21.2-2.8c1.4-7.1-24.9,3.8-41.4,9.9
		c-16.5,6.1-14.6-6.1-24.9-4.2c-14.5,2.6-31.5,28.7-35.3,23.5c-3.8-5.2,16-20.7-4.7-14.6c-20.7,6.1-19.8,18.4-4.2,18.8
		c15.5,0.5-5.2,10.8-17.9,21.2c-12.7,10.4,1.4,31.1-9.4,35.8c-10.8,4.7,1.4,19.8-2.8,28.7c-4.2,8.9-13.7,2.4-20.7,16
		c-7.1,13.7-13.7,22.6-7.1,37.2c6.6,14.6,26.4,15.5,22.1,22.1c-4.2,6.6-22.6,5.2-7.1,34.8c15.5,29.7-10.8,58.8-22.1,41.9
		c-6.4-9.6-15.9-27.4-21.8-41.9c-4.5-11-7-20.1-4.6-22.1c5.6-4.7,10.8-34.8,8.9-39.5s-12.2-11.3-8-20.7s16-16,20.3-33.9
		C58.4,365.8,59.8,350.8,44.3,369.1z"/>
	<path class="st6" d="M1000,500c0,12.7-0.5,25.2-1.4,37.7c0,0-14.6-6.2-13.2-35.3c1.4-29.2-8-20.3-9.9,4.2
		c-1.9,24.5-12.2,3.3-10.6-17.9c1.6-21.2,19.6-36.7,9.7-52.4c-9.9-15.6-5.7-14.5,1.9-24.8c7.5-10.4-11.6-45.9-11.6-45.9
		c4.2-12.3-1.7-53.6-1.8-54.4C986.9,369.5,1000,433.2,1000,500z"/>
	<path class="st7" d="M782.5,346c7.8,10.8-7.3,4.9-15.5,3.3c-8.2-1.6,2.6,5.4,4.7,10.6c2.1,5.2-2.8,7.3-14.4,8.5
		c-11.5,1.2-9.9,8.5-11.3,16.5c-1.4,8-29-2.8-33.9-6.6c-4.9-3.8-8.7-21.7-14.4-26.1c-5.6-4.5-0.7-11.8,4.2-19.5s-12.5-0.5-19.3,2.8
		c-6.8,3.3,2.1,13.4-2.6,20.5s-10.4-4.2-14.6-12.7c-4.2-8.5-10.6,6.1-7.1,13.9c3.5,7.8-15.5,13.7-25.2,16.9
		c-9.7,3.3-8-15.5-4.9-23.5c3.1-8-21.4-7.8-16.2-11.5s6.1-10.8-4.2-18.6c1,0.4,2.1,0.9,3,1.6c10.3,7.1,21.8-13.4,20-28.3
		c12.2,3.5,23.1,7.4,28.3,22.2c5.2,14.8,15.3,9.4,28.5,3.8c13.2-5.7,14.6-17.7,25.8-15.3s12.5-4.9,19.1-9.7
		c6.6-4.7,11.3,8,12.2,16.7S774.7,335.2,782.5,346z"/>
	<path class="st8" d="M974.6,572.2c2.2,22.3,15.8,25.8,15.8,25.8c-11.7,59-33.8,114.2-64.3,163.8c0,0-9.4-7.1-1.4-28.7
		c8-21.7-26.8,5.2-22.9-8.9c4-14.1-8.7-19.3-25.2-10.4c-16.5,8.9,12.2-36.2-2.8-40.5c-15.1-4.2,6.6-26.4,13.7-35.6
		c7.1-9.2-6.1-21.4,1.9-35c8-13.7,14.1,2.4,18.8,8c4.7,5.7,17.4-16.5,6.6-24.2c-10.8-7.7,25-32.8,25-32.8
		C942.7,562,972.5,551.4,974.6,572.2z"/>
	<path class="st9" d="M865.1,198.9c14.6,13.7,37.9,66.9,36.6,77.9s-11.9-1.9-17.9-1.6c-6,0.3-13.8-2.8-17.3-17.6
		c-3.5-14.8-19.8-7.5-21-1.3c-1.3,6.3-9.7,7.5-1.9,17c7.8,9.4,2.8,12.6-1.3,21c-4.1,8.5-6.9,18.8-10.4,8.8
		c-3.5-10-1.6-13.8-11.6-9.1s-19.8-5.6-20.1-15.7c-0.3-10,15.4-11.9,12.9-19.8c-2.5-7.8-14.4-24.8-16-18.2
		c-1.6,6.6-15.4,13.2-22.3,13.8s-19.8,17.3-24.8,17.6c-5,0.3-22.6-3.1-15.1-8.8c7.5-5.7,20.7-6.3,13.2-15.1
		c-7.5-8.8-16.6,0.6-20.4,7.5c-3.8,6.9-4.4,15.1-11,10.4c-6.6-4.7,1.6-10.7-9.1-12.9c-10.7-2.2-12.2-4.4-8.8-10
		c3.5-5.7,12.6-15.4,2.8-12.9c-9.7,2.5-19.8-0.9-25.4-6.6c-5.7-5.7-22-36.8-13.8-35.5c8.2,1.3,21-1.2,11.6-11.3
		c-9.4-10-29.3-22.3-19.7-24.5c9.6-2.2,13.3-13.7,13.3-13.7s0,0,0,0c5.1,0,9.6,0.4,12.3,2.2c7.3,4.9,26.8,0.7,27.5-5.6
		c0.7-6.4,0.7-8.7,5.7-14.6c4.9-5.9,8.7-9.2,11.5-4c2.8,5.2,12,4.9,6.6-3.5c-5.4-8.5-13.2-13.4-23.8-17.7c-10.6-4.2-0.9-8-8.5-14.6
		c-7.5-6.6-18.1-16.7-2.6-9.9c15.5,6.8,20,0.6,24.2,3.2c4.2,2.7,5.9,10.7,9.7,14.9c3.8,4.2,5.4,12.7,12.2,18.6
		c6.8,5.9,27.1,13.2,20.7,16.2c-6.4,3.1-6.3,18.9,1.2,20.2c7.5,1.3,21.2,1,19-4.6c-2.1-5.7-4.5-16.7-17.9-26.4
		c-13.4-9.7-25.4-23.5-13.7-20.5c11.8,3.1,14.6-3.8,20.5,1.9c5.9,5.7,15.8,29.2,28.5,35.3c12.7,6.1,20.5,8.7,17.4,16
		c-3.1,7.3,2.8,14.6,16.9,18.8c14.1,4.2,29.9,8.2,29.7,14.8C864.9,186,850.5,185.3,865.1,198.9z"/>
	<path class="st10" d="M606.4,644.1c-3.8,8,13.7,18.8,8.9,25.9c-4.7,7.1-17.9,4.2-18.8,11.3c-0.9,7.1-13.7,16.5,1.4,20.7
		c15.1,4.2,16.5,12.2,1.4,18.8c-15.1,6.6-6.6,24.9-20.2,32c-13.7,7.1-54.1-0.9-64.5,0c-10.4,0.9-34.8,10.8-40-5.2
		c-4.3-13.2-17.5-43.9-29.1-48.3c-6-4.3,10.6-22.3,9.9-32c-0.5-7-17.8-11-32.1-14.7c0,0,3.5-11,18.3-10.7c14.8,0.3,30.8,3.5,38,11.6
		c7.2,8.2,0.3-23.8-4.1-32c-4.4-8.2-10,6.9-27.9,6.3c-17.9-0.6-7.8-16.3-29.5-18.2c-21.7-1.9-39.9-14.8-55.7-26.3
		c-15.8-11.5-26.5-4.8-20.7-15.5c5.8-10.7-10.5-10.6-12.4-23.5c-1.8-12.9,29.1-22.6,24.3-25.1c-4.9-2.5,5.2-11-6.4-19.2
		c-11.6-8.3-10.4-12.2-6.6-24.7c3.8-12.6-15.4-13.8-7.9-20.7c7.5-6.9-3.3-18.2-3.3-18.2c1.5-1.4,3.3-3,5.4-4.6
		c9.4-7.1,26.4-4.4,15.1-24.1c-11.3-19.7-10.8-31.9-3.8-38.5c7.1-6.6-9-9.4-9.4-14.1c-0.5-4.7,16.9-9.4,2.4-16
		c-14.6-6.6-14.2-15.2-8.7-30.9c13.5,10,43.4,16.6,40.5,6.9c-3.5-12-9.9-17,16.2-18.4c9.3-0.5,19.2-5,28.7-11.3
		c-8.5,6.4-0.7,23.9,7,17.9c8-6.1,19.8-7.5,13.2,4.7c-6.6,12.2,9.4,24.9,8,33.9c-1.4,8.9,17.9,24,2.4,34.8
		c-15.5,10.8-30.6,33-41,28.7c-10.4-4.2-21.2,4.2-27.3,18.4c-6.1,14.1-17.9,40.5-6.6,41c11.3,0.5,29.2,20.2,41.4,12.7
		c12.2-7.5,36.6-34.4,39.5-24.5c1.1,3.7,3.4,10.3,5.4,17.3c3.2,11.6,5.3,24.4-1.1,27.9c-10.4,5.7-44.7,17.9-49,29.2
		c-4.2,11.3,0.5,11.3,15.5,7.5c15.1-3.8,20.7,0.9,8.9,14.1c-11.8,13.2-21.2,18.8-11.3,26.4c9.9,7.5,24.5-7.1,25.4,4.7
		c0.9,11.8,14.5,9.4,14.5,3.3c0.1-6.1,8.1-18.4,12.3-5.7c4.2,12.7,12.7,29.2,22.6,25.9c9.9-3.3,19.3-5.6,13.2-22.6
		c-6.1-17,5.2,3.3,16.5,5.2c11.3,1.9,18.4,21.7,14.1,30.1c-4.2,8.5-1.4,18.4,13.2,21.2c14.6,2.8,12.7,24.9,25,13.2
		C589.9,638.9,610.2,636.1,606.4,644.1z"/>
	<path class="st11" d="M306.1,885.8c-1.5,9.6-10,10.2-15.7,5.2c-5.6-4.9-6.8,5.4-9.9-0.2c-3.1-5.6-21-12-25.9-7.3
		c-4.9,4.7,0.7,8.5,8.9,16.5c8.2,8-2.3,13.6-17.4,4.7c-10.8-6.4-22.8-17.7-17.2-18.4c5.6-0.7,2.4-6.8,8.9-4.5
		c6.6,2.3,13.7-5.9,3.8-9c-9.9-3.1-16,0-28.3-8.5c12.3,6.7,8.8-14.8,19.6-7.1c11.3,8,17.9,8.5,24.5,1.9c6.6-6.6,24.9,3.8,34.4,13.7
		C296.4,877.6,301.2,882.8,306.1,885.8z"/>
	<path class="st12" d="M660.3,78.4c4.2,13.4-11.3,30.4-26.1,29c-14.8-1.4-23.3,7.1-40.9-4.2c-17.6-11.3-25.5,0-40.3-12.7
		c-14.8-12.7-7.1-40.3,13.4-43.8c10.4-1.8,23.4-5.6,36.8-7c13-1.3,26.4-0.4,38.1,7c10.4,6.6,13.6,14,16.5,23.2
		C658.5,72.5,659.4,75.4,660.3,78.4z"/>
	<path class="st13" d="M265.1,700.8c3.8,8.5,16.7,21,8.7,24.5c-8,3.5-9.7,21-22.4,15.8c-12.7-5.2-36.5-14.6-36.2-26.6
		c0.2-12,9.4-19.3-7.5-28.7s-11.5-12.9-9.2-19.3c2.4-6.4-17.4-10.4-30-16c-12.6-5.6-15.7-13.2-8.9-12.7c23.7,1.7,34.6,17.4,41,8.7
		c6.4-8.7,7.5-10.6,16,0.9c8.5,11.5,18.8,17.2,29,17.4c10.1,0.2,8.9,4.9,4.2,12.5C245.1,684.8,261.3,692.3,265.1,700.8z"/>
	<path class="st14" d="M652.5,208.3c8.5,16.2-12.7,17.7-14.8,29.7c-2.1,12-17-2.1-27.5,8.5c-10.6,10.6,14.8,28.2,19.8,43.1
		c0.4,1.3,0.7,2.7,0.9,4.2c1.8,14.9-9.7,35.4-20,28.3c-1-0.7-2-1.2-3-1.6c-11.1-4.3-26,5.3-41.5,15c-1,0.6-2,1.2-2.8,1.6
		c-13.8,7.1-12.4-7.5-40.2-10.8c-29.7-3.5-43.8-17-58.6-18.4c-14.8-1.4-2.8-24.7,3.5-47.3c6.4-22.6-0.7-32.5-12-15.5
		c-7.2,10.8-22.6,28.1-39.6,39.6c-0.3,0.2-0.6,0.4-0.8,0.6c-9.5,6.3-19.5,10.8-28.7,11.3c-26.1,1.4-19.8,6.4-16.2,18.4
		c2.9,9.8-27,3.2-40.5-6.9v0c-3.1-2.3-5.3-4.8-6.1-7.3c-4.2-13.4-36-11.3-33.2-29c2.8-17.7-16.2-18.4-17.7-34.6
		c-1.4-16.2,38.5-23.3,45.9-44.5c9.9-28.2-34.6-2.1-59.3-7.1c-24.7-4.9-15.5,36.7-45.2,45.9c-29.7,9.2-35.3-9.9-41.7,0
		c-6.4,9.9-17,13.4-30.4,14.8c-13.4,1.4-45.9,31.1-41,50.1c4.9,19.1-27.5,40.2-30.4,31.8c-1.9-5.7-1.2-14.6,1.5-23.6c0,0,0,0,0,0
		c1.4-4.4,3.2-8.9,5.5-13.1c7.1-12.7-7.1-22.6,14.1-25.4c21.2-2.8,14.8-24.7,34.6-35.3c19.8-10.6,73.4-49.4,38.1-34.6
		c-35.3,14.8-27.5,5.7,7.1-24.7s70.6-65,83.3-71.9c9.8-5.3,12.4-0.5,15.1,7.5c0.8,2.4,1.6,5.1,2.6,7.9c4.2,12,19.1,24,46.7,23.3
		c27.5-0.7,4.9-19.8,19.1-20.5c14.1-0.7,15.5-20.5,21.2-12.7c3.8,5.3,9.6,4.4,17.7,1.5c3.9-1.4,8.3-3.2,13.3-5
		c15.5-5.7,19.8,1.4,9.2,12c-10.6,10.6,14.1,9.2,2.1,18.4c-12,9.2-13.4,16.2-39.5,9.2c-26.1-7.1-2.1,17.7,10.6,23.3
		c12.7,5.7,48-8.5,49.4,4.2c1.4,12.7,24-0.7,40.9-7.1c16.9-6.4-16.2-12.7,7.9-21.2c24-8.5,25.4,11.3,39.5-0.7
		c1.6-1.4,3.1-2.4,4.4-3.2c5.1-2.9,7.8-1.1,9.4,2.4c1.6,3.3,2.2,8.2,3.1,12.1c2.1,9.2,28.9,12,56.5-1.4c27.5-13.4,4.2,4.2,8.5,21.3
		c4.2,17.1,17.7,19.6,24,4.1C623.6,159.6,644.1,192.1,652.5,208.3z"/>
	<path class="st15" d="M940.9,356.9c1.6,13.7-14.1,9.2-16.2-4.5c-2.1-13.7-19.8-40.7-9.4-8.7c10.4,32,6.1,46.6,2.8,61.7
		c-3.3,15.1-10.8,41.4-12.7,17.9c-1.9-23.5,1.4-46.1-1.4-55.6s-16.2-9.9-13.4-2.4c2.8,7.5,7.3,18.2-0.9,22.4
		c-8.2,4.2-19.3-5.9-16-15.6s8-20.5-6.4-29.2c-14.4-8.7-21-19.4-13.9-20c12.1-1,19.1,13.7,25.4-4c6.4-17.7,8.5-21.8,16.5-25.3
		c8-3.5,21.9-11.8,27.1,0C927.5,305.6,939.3,343.2,940.9,356.9z"/>
	<path class="st16" d="M611.1,956c-5.9,11.3,15.1,1.8,10.4,29.2v0c-38.9,9.7-79.6,14.9-121.5,14.9C223.9,1000,0,776.1,0,500
		c0-8.9,0.2-17.7,0.7-26.4c19,5.2,15.8-23.5,21.9-48.5c0.2-0.8,0.4-1.6,0.6-2.4c0,0,0,0,0-0.1c5.5-23.3,6-35.8,21.1-53.5
		c15.5-18.4,14.1-3.3,9.9,14.6c-4.2,17.9-16,24.5-20.3,33.9s6.1,16,8,20.7s-3.3,34.8-8.9,39.5c-2.4,2,0,11.1,4.6,22.1h0
		c0,0-8.3,10.8-6.9,24.9c1.4,14.1,9.9,42.8,10.4,71.6c0.5,28.7-19.8-21.7-15.5,2.4c4.2,24,25.4,77.2,36.7,103.6
		c11.3,26.4,17,19.8,26.4,23.1s23.5,29.7,23.1,51.8c-0.5,22.1,24,14.1,24,23.5s21.7,23.1,36.7,28.2c15.1,5.2,25.4,24.9,39.5,34.4
		c0.5,0.4,1,0.7,1.5,0.9c0,0,0,0,0,0c12.3,8.4,18.5,5.4,28.3,8.5c9.9,3.1,2.8,11.3-3.8,9c-6.6-2.3-3.3,3.8-8.9,4.5
		c-5.7,0.7,6.4,12,17.2,18.4c15.1,8.9,25.7,3.3,17.4-4.7c-8.2-8-13.9-11.8-8.9-16.5c4.9-4.7,22.8,1.7,25.9,7.3
		c3.1,5.7,4.2-4.7,9.9,0.2c5.7,4.9,14.1,4.4,15.7-5.2c5.4,3.2,11,3.8,16.8-1.6c11.3-10.4-6.1-11.3-12.2-29.7
		c-6.1-18.4,8-3.3,16.5-3.3c8.5,0,9.4,18.4,24,28.2c14.6,9.9,8-14.1-0.9-19.8c-8.9-5.7,3.8-24,12.1-38.6c8.3-14.6-9.8-9.4-14-17.9
		c-4.2-8.5,8.9-15.5,18.4-10.4c9.4,5.2,14.6,1.9,23.1-8c8.5-9.9,18.8-1.9,32,3.3c13.2,5.2,3.3,17.9-6.1,12.7s-15.5-7.1-19.8,0.5
		c-4.2,7.5,11.3,6.6,22.6,14.1c11.3,7.5-6.6,11.8-12.7,24.9c-2.1,4.5-0.3,9.5,4.3,14.5c0,0-20,2.9-20,10.8
		c0,7.8,17.9,10.4,16.6,21.1c-1.3,10.8,21,4.9,26.7,11.8c5.7,6.9-18.8-0.6-30.1,9.1c-11.3,9.7-20.4,6-32.3,12.2
		c-11.9,6.3-30.3-1-27.9,11c1.9,9.4,16,7.5,16,14.7c0,7.2-1.6,21,6.9,17.6c8.5-3.5,17-14.8,24.5-6.6c7.5,8.2,19.1,4.4,23.2-0.9
		c4.1-5.3,26.4,9.1,22.6-2.8c-3.8-11.9-22-6.9-27.9-15.7s14.8-22.3,27-18.5c12.2,3.8,16.6,22.6,23.9,15.1c7.2-7.5,33.9-0.9,33.9-0.9
		c-0.3,3.3,0.3,6.1,1.7,7.6c4,4.2-12.7,11.8-10.1,19.1c2.6,7.3,0,17.7,15.3,14.8c15.3-2.8,33.4-10.6,37.2-17.4
		c3.8-6.8-11.1,1.4-21.7,0.2c-10.6-1.2-5.9-18.4-2.4-13.4c3.5,4.9,12.2,1.9,23.3-1.4c11.1-3.3,28-12.5,24.2-3.5
		c-3.8,8.9,3.5,13.9,20.7,6.6c17.2-7.3,11.9-13.4,26.2-11.5C621.9,935.7,617,944.7,611.1,956z"/>
	<path class="st17" d="M848.4,726.9c4.2,7.5-17,12.2-23.5,3.8c-6.6-8.5-11.8-14.1-34.4-16.5c-22.6-2.4-23.5,17-10.8,23.5
		c12.7,6.6,24.5,16,25.9,26.4c1.4,10.4,7.5,15.1,17.4,16.5c9.9,1.4,21.7,9.9,8.5,9c-13.2-0.9-26.4,5.6-25.4,14.1
		c0.9,8.5,22.6,32.5-0.9,17.4c-23.5-15.1-69.7-41.9-53.2-25.4c16.5,16.5,32.6,30.1,32.8,36.7c0.2,6.6-12.1,22.6-14.4,9.9
		c-2.4-12.7-18.4-32.6-27.8-41s-24.5-24.9-19.3-9.8c5.2,15.1,16.4,30.6,21.6,39.5s28.8,54.1,39.9,52.7c11-1.4,34.9-13.2,38.7-2.3
		c-21.7,18.4-45,35-69.7,49.6c0,0-14-16.2,0.1-22.8s13.2-7.5,6.1-27.8c-7.1-20.3-41-59.3-46.4-72.5c-5.5-13.2-12-17.9-17.2-8.9
		c-5.3,8.9-22.1,6.6-18.3-11.8c3.8-18.4-20.3,8.9-27.3,9.9c-7.1,0.9,5.7-22.1,8.5-35.8c2.8-13.7-19.3-11.8-51.3-7.1
		c-32,4.7,2.8-11.3,28.2-17c25.4-5.7,19.3-7.1,4.3-18.4c-15-11.3-20.4-17.4-8.6-23.1c11.8-5.7,4.2-21.2-3.3-33.4
		c-7.5-12.2,12.2,0.9,20.7,4.2c14.9,5.8-11.3-41.9-21.7-59.3c-10.4-17.4-7.5-37.2,4.2-31.5c11.8,5.7,25.9,33.9,35.8,20.2
		c9.9-13.7-12.2-61.2,0-60.3c12.2,0.9,16-14.1,14.1-31.5c-0.3-3.1-0.8-6.1-1.4-8.8c-2.3-12.1-4.4-18.4,9.8-11c2.4,1.2,4.4,3.4,6,6.2
		c0,0,0,0,0,0c10.3,17.8,6.9,63.1,5.7,87c-1.1,22,33-1.8,49.8-19.3c4.4-4.6,7.5-8.7,8.6-11.5c0.8-2,1.6-3.3,2.5-3.9
		c4.8-3.6,9.1,14.1-2.5,41.3c-13.7,32,2.4,48.5,18.4,25.9c16-22.6-4.7-27.7,9.4-42.3c14.1-14.6,8-26.9,19.3-27.3
		c11.3-0.5,20.3-28.7,29.7-46.6c9.4-17.9,11.3,0.9,4.2,24.9c-7.1,24.1-14.1,36.4-4.2,49.1c9.9,12.7-2.8,33.9-7.5,26.8
		c-4.7-7.1-32.5-17.9-22.1-3.3c10.4,14.6-5.6,26.8-19.3,37.7c-13.7,10.8-17.9,41.4,2.8,28.7c20.7-12.7,57.4-51.8,57.4-37.2
		c0,14.6-25.9,27.8-26.4,38.6c-0.5,10.8-45.2,23.5-24.9,35.8C817.3,707.2,844.2,719.4,848.4,726.9z M723.4,754.5
		c4.2-6.8,1.9-16.2-3.3-20.7c-5.2-4.5-7-12.4-22.4-12.5c-7.2-0.1-10.8,7.1-18.6,12.2c-7.8,5.2-2.4,15.1-2.6,24.9s12.5,4,16.7,11.3
		c4.2,7.3,11.1,0.2,16.2-7.3C714.7,754.9,719.2,761.3,723.4,754.5z"/>
	<path class="st18" d="M720.1,733.8c5.2,4.5,7.5,13.9,3.3,20.7c-4.2,6.8-8.7,0.5-13.9,8c-5.2,7.5-12,14.6-16.2,7.3
		c-4.2-7.3-17-1.4-16.7-11.3s-5.2-19.8,2.6-24.9c7.8-5.2,11.4-12.3,18.6-12.2C713.2,721.4,714.9,729.3,720.1,733.8z M712.6,747.1
		c1.9-4.1-4.3-12.3-12.3-11.2c-8.8,1.2-8.2,10.1-10.8,12.9c-2.6,2.8,4,5.2,7.5,9.7c3.5,4.5,4.2-4.5,5.4,0
		C703.6,762.9,710.7,751.2,712.6,747.1z"/>
	<path class="st19" d="M417.8,17.3c4.1,6.6,13.8,14.4,7.2,20.4c-6.6,6-18.2,6-10.4,14.8s-8.5,24.2-11.9,31.1
		c-3.5,6.9-19.8,14.4-17.3,3.8c2.5-10.7,6-24.8-3.8-18.7c-9.7,6.1-10.6,20.2-19.3,20.9s1.1,9.7,15.5,17.3v0
		c-8.1,2.9-13.9,3.8-17.7-1.5c-5.7-7.8-7.1,12-21.2,12.7c-14.1,0.7,8.5,19.8-19.1,20.5c-27.5,0.7-42.5-11.3-46.7-23.3
		c-1-2.8-1.8-5.5-2.6-7.9c0,0,17.4-19.3,22.5-9.7c5,9.6,25.4,14,29.8,5.8c4.4-8.2,1.6-32.3,13.2-27.3c11.6,5,24.5-0.3,26.2-8.8
		c1.7-8.5-6.1-12.9-21.2-11.3c-15.1,1.6-25.4-0.9,1.6-7.5c27-6.6,49.9-19.1,55.2-20.1C403.3,27.3,413.7,10.7,417.8,17.3z"/>
	<path class="st20" d="M998.6,537.7c-1.5,20.5-4.3,40.6-8.2,60.3c0,0-13.6-3.5-15.8-25.8c-2-20.8-31.9-10.2-34.8-18.6
		c-0.2-0.6-0.3-1.3-0.2-2.2c1.5-12.2,3.3-22.3-16.2-27c-0.8-0.2-1.5-0.4-2.1-0.6c-16.5-4.9-6.3-14.2,9.1-37.7
		c16-24.5-8.5-35.2-4.4-53.5c4.1-18.4,24.8-22.1,12.9-34.6c-11.9-12.6,17-23.9,24.3-29.5c0.7-0.6,1.3-1.5,1.8-2.9
		c0,0,19.1,35.5,11.6,45.9c-7.5,10.4-11.8,9.2-1.9,24.8c9.9,15.6-8,31.2-9.7,52.4c-1.6,21.2,8.7,42.4,10.6,17.9
		c1.9-24.5,11.3-33.4,9.9-4.2C984,531.5,998.6,537.7,998.6,537.7z"/>
	<path class="st21" d="M759.9,880.4c7.1,20.2,8,21.2-6.1,27.8s-0.1,22.8-0.1,22.8c-7.5,4.4-15.1,8.7-22.9,12.7
		c0,0,1.8-10.2-19.6-15.5c-21.3-5.3-68.7,19.5-69.1,10c-0.3-9.4,30.8-21,54.3-29c23.5-8,19.2-31.9,21-43.2
		c1.9-11.3-11.6,6.9-13.8,16.6c-2.2,9.7-29.2,17.9-34.5,12.2c-5.3-5.6-31.1,7.2-57.4-1.6c-26.4-8.8-13.8-21-8.8-38.9
		c5-17.9,12.9-12.2,17.6-19.2s13.2-22,14.8-31.4c1.6-9.4-9.7,10-18.8,12.9c-9.1,2.8-18.2,12.6-24.8,31.1
		c-6.6,18.5-11.3,25.1-18.8,25.1c-7.5,0-17.6,11.3-20.7,5.3c-3.1-6-17.9,0-23.2,5c-5.3,5-7.9-5.2-19.2,3.5
		c-4.5,3.5-14.2,5.9-9.7,9.9c4.5,4,16.5,9.9,4.9,17.4c-7.5,4.9-11.2,12.7-11.8,18.8c0,0-26.7-6.6-33.9,0.9
		c-7.2,7.5-11.6-11.3-23.9-15.1c-12.2-3.8-33,9.7-27,18.5s24.2,3.8,27.9,15.7c3.8,11.9-18.5-2.5-22.6,2.8
		c-4.1,5.3-15.7,9.1-23.2,0.9c-7.5-8.2-16,3.1-24.5,6.6c-8.5,3.5-6.9-10.4-6.9-17.6c0-7.2-14.1-5.3-16-14.7c-2.4-12,16-4.7,27.9-11
		c11.9-6.3,21-2.5,32.3-12.2c11.3-9.7,35.8-2.2,30.1-9.1c-5.7-6.9-27.9-1.1-26.7-11.8c1.3-10.8-16.6-13.3-16.6-21.1
		c0-7.9,20-10.8,20-10.8c8.8,9.7,27.7,19.3,48.5,25.5c31.5,9.4,20.7-0.5,21.2-11.3c0.5-10.8,15.1,1.9,25.4-3.8
		c10.4-5.6-13.7-7.5,0.5-16c14.1-8.5,12.7-10.4,1.9-20.7c-10.8-10.4-2.8-12.2,0.5-18.8c3.3-6.6-2.4-24.5,10.4-21.7
		c12.7,2.8,0,10.4,11.8,21.2c11.8,10.8,5.6,16,7.1,22.6c1.4,6.6,22.1,6.6,41.4-6.6c19.3-13.2,12.7-14.6-6.1-8.5s9.9-19.8,21.2-29.7
		c11.3-9.9,18.8,8.9,28.2,0.5c9.4-8.5,23.1-17.9,16.9-23.1c-6.1-5.2-52.3,4.2-62.1,6.1c-9.9,1.9-8.9,8.5-11.8,17.9
		s-14.1,20.7-19.7,13.2c-5.6-7.5,1.8-20.7,9.3-27.3c7.5-6.6-15.1-8.5-24.9-11.8c-9.9-3.3-19.8,5.7-24.9,0.5s-8.9,5.2-4.7,12.7
		c4.2,7.5-5.7,18.8-12.7,29.7c-7.1,10.8-17.9-4.7-27.8-6.6c-9.9-1.9-18.4-10.4-19.3-21.7c-0.9-11.3,14.1-18.4,7.1-24
		c-7.1-5.6-39.1-6.6-49-17c-9.9-10.4-16.9,5.2-25.4,0c-8.5-5.2-24-25.4-19.3-40.5c4.7-15.1,16-12.2,25.9,8.5
		c9.9,20.7,39.5,26.8,54.6,28.2c15.1,1.4-8.5-21.2,4.2-32c2.2-1.9,4.7-2.2,7.2-1.2c11.6,4.4,24.8,35.1,29.1,48.3
		c5.2,16,29.7,6.1,40,5.2c10.4-0.9,50.8,7.1,64.5,0c13.7-7.1,5.2-25.4,20.2-32c15.1-6.6,13.7-14.6-1.4-18.8
		c-15.1-4.2-2.4-13.7-1.4-20.7c0.9-7.1,14.1-4.2,18.8-11.3c4.7-7.1-12.7-17.9-8.9-25.9c3.8-8-16.5-5.2-28.7,6.6
		c-12.2,11.8-10.4-10.4-25-13.2c-14.6-2.8-17.4-12.7-13.2-21.2c4.2-8.5-2.8-28.2-14.1-30.1c-11.3-1.9-22.6-22.1-16.5-5.2
		c6.1,17-3.3,19.3-13.2,22.6c-9.9,3.3-18.4-13.2-22.6-25.9c-4.2-12.7-12.2-0.5-12.3,5.7c-0.1,6.1-13.6,8.5-14.5-3.3
		c-0.9-11.8-15.5,2.8-25.4-4.7c-9.9-7.5-0.5-13.2,11.3-26.4c11.8-13.2,6.1-17.9-8.9-14.1c-15.1,3.8-19.8,3.8-15.5-7.5
		c4.2-11.3,38.6-23.5,49-29.2c6.5-3.5,4.3-16.3,1.1-27.9c0,0,13.3,0.9,21.8,6.6c8.5,5.7,3.5,18.8,9.1,26.4
		c5.6,7.5,24.2,2.5,28.2,17.6c4.1,15.1,25.4-18.2,30.1-25.2c4.7-7-3.8-19.7-19.2-32.9c-15.4-13.2-33.6-2.8-45.2-0.3
		c-11.6,2.5-10.1-13.8-10.1-24.6s8.5-14,3.5-17.8c-5-3.8-28.6,9.8-31.7,16.4c-3.1,6.7-22.3-12.3-22.6-20.1
		c-0.3-7.8,15.1-9.8,25.7-6.7c10.7,3.1,1.3-8.2,6-15.4c4.7-7.2,13.8-13.5,14.8-22.6c0.9-9.1,24.8-14.1,26.7-6
		c1.9,8.1,13.5-10.9,21.3-5.5c7.9,5.4,16.3,4.3,21.7-2.3c5.3-6.6,21.2-1.3,21.2-1.3c-0.4,3.6-0.1,5.7,2,3.7c6-6.1,13.5-4.8,12.2,2.7
		c-1.3,7.5,3.1,16,11.3,24.9c8.2,9,22.9-3,29.5,3.9c6.6,6.9,13.5,16,3.1,22.3c-10.4,6.3-18.8,7.5-11.9,18.6
		c6.9,11.2,15.3,20,17.2,10.9c1.9-9.1,8.5-21.7,13.2-25.7c4.7-4.1,17.3,0.2,22.9,14.9c5.7,14.6,17.9,45.7,7.2,39.7
		c-10.7-6-15.4,1.9-9.7,11.9c5.6,10,24.1,11.2,24.1,11.2c0.5,2.7,1,5.6,1.4,8.8c1.9,17.4-1.9,32.5-14.1,31.5
		c-12.2-0.9,9.9,46.6,0,60.3c-9.9,13.7-24-14.6-35.8-20.2c-11.8-5.6-14.6,14.1-4.2,31.5c10.4,17.4,36.6,65.1,21.7,59.3
		c-8.5-3.3-28.2-16.5-20.7-4.2c7.5,12.2,15.1,27.8,3.3,33.4c-11.8,5.6-6.4,11.8,8.6,23.1c15,11.3,21.1,12.7-4.3,18.4
		c-25.4,5.7-60.2,21.7-28.2,17c32-4.7,54.1-6.6,51.3,7.1c-2.8,13.7-15.5,36.7-8.5,35.8c7.1-0.9,31.1-28.2,27.3-9.9
		c-3.8,18.4,13,20.7,18.3,11.8c5.3-9,11.8-4.2,17.2,8.9C718.9,821.1,752.8,860.2,759.9,880.4z"/>
	<path class="st22" d="M552.5,125c6.5-2.7,19.4-5.5,29.9,1.9c13.2,9.2,15.1,8.1,22.1,3.7c2.6-1.6,4.7-1.2,6.5,0.3
		c3,2.6,5.2,8.2,7.6,11.7c3.8,5.7,17.9-8.9,24.9-5.2c4.5,2.4,15.2,1.1,24.2,1.1c0,0,0,0,0,0s-3.7,11.5-13.3,13.7
		c-9.6,2.2,10.2,14.4,19.7,24.5c9.4,10-3.5,12.6-11.6,11.3c-8.2-1.3,8.2,29.9,13.8,35.5c5.7,5.6,15.7,9.1,25.4,6.6
		c9.7-2.5,0.6,7.2-2.8,12.9c-3.5,5.6-1.9,7.8,8.8,10c10.7,2.2,2.5,8.2,9.1,12.9c6.6,4.7,7.2-3.4,11-10.4c3.8-6.9,12.9-16.3,20.4-7.5
		c7.5,8.8-5.7,9.4-13.2,15.1c-7.5,5.6,10,9.1,15.1,8.8c5-0.3,17.9-16.9,24.8-17.6s20.7-7.2,22.3-13.8c1.6-6.6,13.5,10.4,16,18.2
		c2.5,7.8-13.2,9.7-12.9,19.8c0.3,10,10,20.4,20.1,15.7s8.2-0.9,11.6,9.1c3.5,10,6.3-0.3,10.4-8.8c4.1-8.5,9.1-11.6,1.3-21
		c-7.9-9.4,0.6-10.7,1.9-17c1.3-6.3,17.6-13.5,21,1.3c3.4,14.8,11.3,17.9,17.3,17.6c6-0.3,16.6,12.6,17.9,1.6s-22.1-64.3-36.6-77.9
		c-14.6-13.7-0.2-12.9,0-19.5c0.2-6.6-15.5-10.6-29.7-14.8c-14.1-4.2-20-11.5-16.9-18.8c3.1-7.3-4.7-9.9-17.4-16
		c-12.7-6.1-22.6-29.7-28.5-35.3c-5.9-5.7-8.7,1.2-20.5-1.9c-11.8-3.1,0.2,10.8,13.7,20.5c13.4,9.7,15.8,20.7,17.9,26.4
		c2.1,5.6-11.5,5.9-19,4.6c-7.5-1.3-7.6-17.1-1.2-20.2c6.4-3.1-13.9-10.4-20.7-16.2c-6.8-5.9-8.5-14.4-12.2-18.6
		c-3.8-4.2-5.4-12.2-9.7-14.9c-4.2-2.7-8.7,3.6-24.2-3.2c-15.5-6.8-4.9,3.3,2.6,9.9c7.5,6.6-2.1,10.4,8.5,14.6
		c10.6,4.2,18.4,9.2,23.8,17.7c5.4,8.5-3.8,8.7-6.6,3.5c-2.8-5.2-6.6-1.9-11.5,4c-4.9,5.9-4.9,8.2-5.7,14.6
		c-0.7,6.4-20.2,10.6-27.5,5.6c-2.6-1.8-7.2-2.2-12.3-2.2c0-0.5,1.1-20.2,6.7-22.1c5.6-1.9,9.1-15.1,18.2-19
		c9.1-3.9-14.4-12.1-15.4-18.4c-0.9-6.3-19.6-9.2-19.6-9.2c-2.9-9.3-6.1-16.7-16.5-23.2c-11.7-7.4-25.1-8.4-38.1-7
		c1.8-15-9-6.6-20-11.3c-11-4.6-2.2,5.9-7.2,10.7c-5,4.9-21.7-4.6-34.5-9.6c-12.9-5-2.5,7.5-4.4,14.4c-1.9,6.9-15.1,6.9-24.8,12.9
		c-9.7,6-3.8,12.9-3.8,17.3c0,4.4-7.8,10-18.2,0c-10.4-10-0.3,20.7-2.8,26c-2.5,5.3,13.5,15.7,14.1,21.3
		c0.6,5.7,14.1,15.2,14.1,15.2c-1.3,0.7-2.7,1.8-4.4,3.2c-14.1,12-15.5-7.8-39.5,0.7c-24,8.5,9,14.8-7.9,21.2
		c-16.9,6.4-39.5,19.8-40.9,7.1c-1.4-12.7-36.7,1.4-49.4-4.2c-12.7-5.7-36.7-30.4-10.6-23.3c26.1,7.1,27.5,0,39.5-9.2
		c12-9.2-12.7-7.8-2.1-18.4c10.6-10.6,6.4-17.7-9.2-12c-5,1.8-9.5,3.7-13.3,5v0c-14.4-7.5-24.2-16.6-15.5-17.3s9.6-14.8,19.3-20.9
		c9.7-6.1,6.3,8,3.8,18.7c-2.5,10.7,13.8,3.1,17.3-3.8c3.5-6.9,19.8-22.3,11.9-31.1s3.8-8.8,10.4-14.8c6.6-6-3.1-13.8-7.2-20.4
		c-4.1-6.6-14.4,10-19.8,11c-5.3,0.9-28.2,13.5-55.2,20.1c-27,6.6-16.6,9.1-1.6,7.5c15.1-1.6,22.9,2.8,21.2,11.3
		c-1.7,8.5-14.6,13.8-26.2,8.8c-11.6-5-8.8,19.2-13.2,27.3c-4.4,8.2-24.8,3.8-29.8-5.8c-5-9.6-22.5,9.7-22.5,9.7
		c-2.6-8-5.3-12.8-15.1-7.5c-12.7,6.9-48.7,41.5-83.3,71.9s-42.4,39.5-7.1,24.7c35.3-14.8-18.4,24-38.1,34.6
		c-19.8,10.6-13.4,32.5-34.6,35.3c-21.2,2.8-7.1,12.7-14.1,25.4c-2.3,4.2-4.2,8.7-5.5,13.1c0,0,0,0,0,0c-4.7,11.6-22,12.2-26.7,22.6
		c-4.7,10.3-16.6,58.9-22.9,95.3c0,0,0,0,0,0.1c-0.2,0.8-0.4,1.6-0.6,2.4c-6.1,24.9-2.9,53.6-21.9,48.5C14.4,209.7,232.7,0,500,0
		c209.3,0,388.6,128.7,463.1,311.2c0,0,0,0,0,0c0.1,0.8,6,42.1,1.8,54.4c-0.5,1.4-1,2.3-1.8,2.9c-7.4,5.7-36.3,17-24.3,29.5
		c11.9,12.6-8.8,16.3-12.9,34.6c-4.1,18.4,20.4,29.1,4.4,53.5c-15.4,23.5-25.5,32.8-9.1,37.7c0,0-20.1,23.7-35.7,34.5
		C870,569.2,854,594.2,854,578.2c0-16-16.9-10.3-16.9-10.3c-9.9-12.7-2.8-25,4.2-49.1c7.1-24,5.2-42.8-4.2-24.9
		c-9.4,17.9-18.4,46.1-29.7,46.6c-11.3,0.5-5.2,12.7-19.3,27.3c-14.1,14.6,6.6,19.7-9.4,42.3c-16,22.6-32,6.1-18.4-25.9
		c11.6-27.2,7.2-44.9,2.5-41.3c0,0,6.5-20.7,2.1-26.3c-4.4-5.7-19.1-2.8-15.1-13.5c4.1-10.7,11.5-22.9,7.9-31.1
		c-3.6-8.2-1.4-13.2,10.6-19.1c11.9-6,3.1,8.8,7.2,12.2c4.1,3.5-3.5,6.6-2.8,16.2s3.5,40,9.7,31.5c6.3-8.5,25.1-31.1,23.5-22.3
		c-1.6,8.8,21-18.2,28.6-15.1c7.5,3.1,10.7-13.2,3.8-20.9c-6.9-7.7-4.1-17.8-13.5-22c-9.4-4.2-5.3-10.5,7.2-12.1
		c12.6-1.6,36.7-2.5,40.8-10.4c4.1-7.8-6.6-12.2-7.8-20.4c-1.3-8.2-8.4-17-14.6-22c-6.1-5-9,13.8-20.3,9.1s-19.2-8-18.7-16.8
		c0.5-8.9-14.2-13.9-18.9-23c-4.7-9.1,23.8,2.5,28.6,0c4.7-2.5,8.8-11,6.6-19.1c-2.2-8.2-15.4-10-23.2-6.7
		c-7.8,3.3-17.9,2.4-17.9-3.9c0-6.3-5-15.8-11.9-6.7c-6.9,9.1,1.2,11,10,15.4c8.8,4.4,31.7,7.5,13.5,8.2c-18.2,0.6-20.1,10-8.2,24.2
		c11.9,14.1,15.4,36.4,8.5,31.1c-6.9-5.3-12.6-10.4-9.4,0.9c3.1,11.3,8.8,36.1,8.2,43.3c-0.6,7.2-24.2,18.2-23.5,2.7
		c0.6-15.5-6-23.1-3.5-34.4c2.5-11.3-12.9-23.6-12.9-23.6c11.5-1.2,16.5-3.3,14.4-8.5c-2.1-5.2-13-12.2-4.7-10.6
		c8.2,1.6,23.3,7.5,15.5-3.3c-7.8-10.8-36.8-25.9-37.7-34.6s-5.6-21.4-12.2-16.7c-6.6,4.7-7.9,12-19.1,9.7s-12.7,9.7-25.8,15.3
		c-13.2,5.6-23.3,11.1-28.5-3.8c-5.2-14.8-16.1-18.7-28.3-22.2c-0.2-1.5-0.5-2.8-0.9-4.2c-4.9-14.8-30.4-32.5-19.8-43.1
		c10.6-10.6,25.4,3.5,27.5-8.5c2.1-12,23.3-13.4,14.8-29.7c-8.5-16.2-29-48.7-35.3-33.2c-6.4,15.5-19.8,13-24-4.1
		c-4.2-17.1,19.1-34.7-8.5-21.3c-27.5,13.4-54.4,10.6-56.5,1.4c-0.9-3.9-1.6-8.8-3.1-12.1c0,0,9-9.1,15.1-6.5
		c6.1,2.6,5.4-3.1,8.7-5.7C549.6,126.4,550.8,125.7,552.5,125z M924.7,352.4c2.1,13.7,17.9,18.1,16.2,4.5
		c-1.6-13.7-13.4-51.3-18.6-63.2c-5.2-11.8-19.1-3.5-27.1,0c-8,3.5-10.1,7.6-16.5,25.3c-6.4,17.7-13.4,3-25.4,4
		c-7.1,0.6-0.5,11.3,13.9,20c14.4,8.7,9.7,19.5,6.4,29.2s7.8,19.8,16,15.6c8.2-4.2,3.8-14.9,0.9-22.4c-2.8-7.5,10.6-7.1,13.4,2.4
		s-0.5,32,1.4,55.6c1.9,23.5,9.4-2.8,12.7-17.9c3.3-15.1,7.5-29.7-2.8-61.7C904.9,311.7,922.5,338.8,924.7,352.4z"/>
	<path class="st23" d="M638.9,764.6c6.1,5.2-7.5,14.6-16.9,23.1c-9.4,8.5-17-10.4-28.2-0.5c-11.3,9.9-40,35.8-21.2,29.7
		s25.4-4.7,6.1,8.5c-19.3,13.2-40,13.2-41.4,6.6c-1.4-6.6,4.7-11.8-7.1-22.6c-11.8-10.8,0.9-18.4-11.8-21.2
		c-12.7-2.8-7.1,15.1-10.4,21.7c-3.3,6.6-11.3,8.5-0.5,18.8c10.8,10.4,12.2,12.2-1.9,20.7c-14.1,8.5,9.9,10.4-0.5,16
		c-10.4,5.7-25-7.1-25.4,3.8c-0.5,10.8,10.4,20.7-21.2,11.3c-20.8-6.2-39.7-15.9-48.5-25.5c-4.5-5-6.4-10-4.3-14.5
		c6.1-13.2,24-17.4,12.7-24.9c-11.3-7.5-26.8-6.6-22.6-14.1c4.2-7.5,10.4-5.7,19.8-0.5s19.3-7.5,6.1-12.7
		c-13.2-5.2-23.5-13.2-32-3.3c-8.5,9.9-13.7,13.2-23.1,8c-9.4-5.2-22.6,1.9-18.4,10.4c4.2,8.5,22.3,3.3,14,17.9
		c-8.3,14.6-21.1,33-12.1,38.6c8.9,5.6,15.5,29.7,0.9,19.8c-14.6-9.9-15.5-28.2-24-28.2c-8.5,0-22.6-15.1-16.5,3.3
		c6.1,18.4,23.5,19.3,12.2,29.7c-5.9,5.4-11.5,4.8-16.8,1.6c-5-3-9.7-8.1-14.2-12.9c-9.4-9.9-27.8-20.2-34.4-13.7
		c-6.6,6.6-13.2,6.1-24.5-1.9c-10.9-7.7-7.4,13.8-19.6,7.1c0,0,0,0,0,0c-0.5-0.3-1-0.6-1.5-0.9c-14.1-9.4-24.5-29.2-39.5-34.4
		c-15.1-5.2-36.7-18.8-36.7-28.2s-24.5-1.4-24-23.5c0.5-22.1-13.7-48.5-23.1-51.8s-15.1,3.3-26.4-23.1
		c-11.3-26.4-32.5-79.6-36.7-103.6c-4.2-24,16,26.4,15.5-2.4c-0.5-28.7-8.9-57.4-10.4-71.6c-1.4-14.1,6.9-24.9,6.9-24.9h0
		c5.9,14.5,15.4,32.3,21.8,41.9C70.6,558.8,97,529.7,81.5,500c-15.5-29.7,2.8-28.2,7.1-34.8c4.2-6.6-15.5-7.5-22.1-22.1
		c-6.6-14.6,0-23.5,7.1-37.2c7.1-13.7,16.5-7.1,20.7-16c4.2-9-8-24,2.8-28.7c10.8-4.7-3.3-25.4,9.4-35.8
		c12.7-10.4,33.4-20.7,17.9-21.2c-15.5-0.5-16.5-12.7,4.2-18.8c20.7-6.1,0.9,9.4,4.7,14.6c3.8,5.2,20.8-20.9,35.3-23.5
		c10.4-1.9,8.5,10.4,24.9,4.2c16.5-6.1,42.8-16.9,41.4-9.9c-1.4,7.1,8.9,5.6,21.2,2.8c12.2-2.8,17.9,1.4,17,9.9
		c-0.9,8.5,14.1,5.2,13.2,13.2c-0.9,8,15.5,19.8-9.4,12.7c-24.9-7.1-44.3-15.1-49.9-1.9c-5.7,13.2,16.5,11.3,15.1,23.5
		c-1.4,12.2-24,32.5-0.9,25.9c23.1-6.6,53.2-38.6,57.4-30.1c4.2,8.5,3.3,34.4-5.7,32.5c-8.9-1.9-28.7,6.6-40.5,9.4
		c-11.8,2.8-22.1-3.8-22.1,4.7c0,8.5,5.7,25.4-6.6,30.1s-16.5,20.2-10.8,32.5c5.6,12.2,17.9-0.5,21.2-10.8
		c3.3-10.4,0.9-18.5,15.1-17.5c14.1,1,27.3,1,29.7-10.8s19.3-11.3,19.3,0.5s17,25.4,0,31.1c-14.4,4.8-7.1,12.3,4.7,14.8
		c0,0-0.8,16.4-14.4,17.4c-13.6,0.9-2.7,14.8-10.9,28.5c-5.6,9.4-35.1-8.5-55.2-24.5c-20.1-16-58.1-42.4-35.2-18.8
		c22.9,23.5,60,54.3,55.2,65.6s11.6,15.7,6.3,25.1S236,547,215.3,546.9c-20.7-0.1,3.1,14.6-0.9,28.4c-4.1,13.8-27.3,4.1-28.6-14.1
		s-18.8-26-17.3-10.7c1.6,15.4,13.5,31.7,26.4,42.4c12.9,10.7,15.4,13.2,5.3,25.4c-10,12.2,11.3,9.7,15.4,3.8
		c4.1-6,11.3-11.6,13.2-2.5c1.9,9.1,11,24.8,23.2,17.6c12.2-7.2,26.4-20.1,19.8-5c-6.6,15.1-17.9,28.9-5.3,24.8
		c12.6-4.1,38.6-31.4,39.9-23.2c1.3,8.2,10.5,18.8,26.3,11.3c15.8-7.5,26.8-14.8,19.2-22.6c-7.5-7.8-12.9-14.4,1.7-11
		c14.6,3.4,37.2,10.4,31.2,21.3c-6,11-15.1,14.8-7.8,21.3s23.5,18.2,27.9,11c4.4-7.2-7.8-22,4.7-16.6c3.4,1.5,8.4,2.8,13.7,4.2
		c14.3,3.7,31.6,7.7,32.1,14.7c0.6,9.6-15.9,27.7-9.9,32c-2.5-1-4.9-0.7-7.2,1.2c-12.7,10.8,10.8,33.4-4.2,32
		c-15.1-1.4-44.7-7.5-54.6-28.2c-9.9-20.7-21.2-23.5-25.9-8.5c-4.7,15.1,10.8,35.3,19.3,40.5c8.5,5.2,15.5-10.4,25.4,0
		c9.9,10.4,41.9,11.3,49,17c7.1,5.7-8,12.7-7.1,24c0.9,11.3,9.4,19.8,19.3,21.7c9.9,1.9,20.7,17.4,27.8,6.6
		c7.1-10.8,17-22.1,12.7-29.7c-4.2-7.5-0.5-17.9,4.7-12.7s15.1-3.8,24.9-0.5c9.9,3.3,32.5,5.2,24.9,11.8
		c-7.5,6.6-14.9,19.8-9.3,27.3c5.6,7.5,16.9-3.8,19.7-13.2s1.9-16,11.8-17.9C586.6,768.8,632.8,759.4,638.9,764.6z M273.8,725.3
		c8-3.5-4.9-16-8.7-24.5c-3.8-8.5-20-16-15.3-23.5c4.7-7.5,5.9-12.2-4.2-12.5c-10.1-0.2-20.5-5.9-29-17.4c-8.5-11.5-9.7-9.6-16-0.9
		c-6.4,8.7-17.3-7-41-8.7c-6.9-0.5-3.8,7.1,8.9,12.7c12.6,5.7,32.3,9.7,30,16c-2.4,6.4-7.8,9.9,9.2,19.3s7.8,16.7,7.5,28.7
		c-0.2,12,23.5,21.4,36.2,26.6C264.1,746.2,265.8,728.8,273.8,725.3z"/>
	<path class="st24" d="M677.3,79.1c0.9,6.3,24.5,14.4,15.4,18.4c-9.1,3.9-12.6,17.1-18.2,19c-5.6,1.9-6.7,21.6-6.7,22.1
		c-9,0-19.7,1.3-24.2-1.1c-7.1-3.8-21.2,10.8-24.9,5.2c-2.4-3.5-4.5-9.1-7.6-11.7c5.6-10.6,1.9-15.1-11.6-15.6
		c-13.5-0.4-16.6-0.8-25.1-7.9c-8.5-7-11.3,9.5-15.3,6.1c-4-3.4-6.5,11-6.6,11.4c-1.6,0.7-2.8,1.4-3.5,1.9c-3.3,2.6-2.6,8.2-8.7,5.7
		c-6.1-2.6-15.1,6.5-15.1,6.5c-1.7-3.5-4.3-5.3-9.4-2.4c0,0-13.5-9.6-14.1-15.2c-0.6-5.6-16.6-16-14.1-21.3c2.5-5.3-7.5-36.1,2.8-26
		c10.4,10,18.2,4.4,18.2,0c0-4.4-6-11.3,3.8-17.3c9.7-6,22.9-6,24.8-12.9c1.9-6.9-8.5-19.5,4.4-14.4c12.9,5,29.5,14.4,34.5,9.6
		c5-4.9-3.8-15.3,7.2-10.7c11,4.6,21.7-3.8,20,11.3c-13.4,1.4-26.4,5.2-36.8,7c-20.5,3.5-28.2,31.1-13.4,43.8
		c14.8,12.7,22.7,1.4,40.3,12.7c17.6,11.3,26.1,2.8,40.9,4.2c14.8,1.4,30.4-15.5,26.1-29c-1-3-1.8-5.9-2.6-8.5
		C657.7,69.9,676.4,72.8,677.3,79.1z"/>
	<path class="st25" d="M563.6,337.1c0,0-3.6,12.5-4.4,19.4c0,0-15.9-5.2-21.2,1.3c-5.3,6.6-13.8,7.7-21.7,2.3
		c-7.8-5.4-19.5,13.5-21.3,5.5c-1.9-8.1-25.7-3.1-26.7,6c-0.9,9.1-10,15.4-14.8,22.6c-4.7,7.2,4.7,18.5-6,15.4
		c-10.7-3.1-26-1.1-25.7,6.7c0.3,7.8,19.5,26.7,22.6,20.1c3.1-6.6,26.7-20.2,31.7-16.4c5,3.8-3.5,7-3.5,17.8s-1.6,27.1,10.1,24.6
		c11.6-2.5,29.8-13,45.2,0.3c15.4,13.2,23.9,25.9,19.2,32.9c-4.7,7-26.1,40.3-30.1,25.2c-4.1-15.1-22.6-10-28.2-17.6
		c-5.7-7.5-0.6-20.7-9.1-26.4c-8.5-5.6-21.8-6.6-21.8-6.6c-1.9-7-4.3-13.6-5.4-17.3c-2.9-9.9-27.3,16.9-39.5,24.5
		c-12.2,7.5-30.1-12.2-41.4-12.7c-11.3-0.5,0.5-26.8,6.6-41c6.1-14.1,17-22.6,27.3-18.4c10.4,4.2,25.4-17.9,41-28.7
		c15.5-10.8-3.8-25.9-2.4-34.8c1.4-8.9-14.6-21.7-8-33.9c6.6-12.2-5.2-10.8-13.2-4.7c-7.8,5.9-15.5-11.5-7-17.9
		c0.3-0.2,0.6-0.4,0.8-0.6c17-11.6,32.5-28.9,39.6-39.6c11.3-17,18.4-7.1,12,15.5c-6.4,22.6-18.4,45.9-3.5,47.3
		c14.8,1.4,29,14.8,58.6,18.4C551.2,329.6,549.7,344.2,563.6,337.1z"/>
	<path class="st26" d="M475.5,621.6c4.4,8.2,11.3,40.2,4.1,32c-7.2-8.2-23.2-11.3-38-11.6c-14.8-0.3-18.3,10.7-18.3,10.7
		c-5.4-1.4-10.3-2.8-13.7-4.2c-12.6-5.3-0.3,9.4-4.7,16.6c-4.4,7.2-20.7-4.4-27.9-11s1.9-10.4,7.8-21.3c6-11-16.6-17.9-31.2-21.3
		c-14.6-3.5-9.2,3.1-1.7,11c7.5,7.8-3.5,15.1-19.2,22.6c-15.8,7.5-25-3.1-26.3-11.3c-1.3-8.2-27.3,19.2-39.9,23.2
		c-12.6,4.1-1.3-9.7,5.3-24.8c6.6-15.1-7.5-2.2-19.8,5c-12.2,7.2-21.3-8.5-23.2-17.6c-1.9-9.1-9.1-3.4-13.2,2.5
		c-4.1,6-25.4,8.5-15.4-3.8c10-12.2,7.5-14.8-5.3-25.4c-12.9-10.7-24.8-27-26.4-42.4c-1.6-15.4,16-7.5,17.3,10.7
		s24.5,27.9,28.6,14.1c4.1-13.8-19.8-28.6,0.9-28.4c20.7,0.1,27.9-1.1,33.3-10.5s-11-13.8-6.3-25.1s-32.3-42.1-55.2-65.6
		c-22.9-23.5,15.1,2.8,35.2,18.8c20.1,16,49.7,33.8,55.2,24.5c8.2-13.7-2.8-27.5,10.9-28.5c13.6-0.9,14.4-17.4,14.4-17.4
		c2.1,0.4,4.3,0.7,6.6,0.8c11.6,0.4,14.8-2.9,20-7.6c0,0,10.8,11.3,3.3,18.2c-7.5,6.9,11.7,8.2,7.9,20.7c-3.8,12.6-5,16.5,6.6,24.7
		c11.6,8.2,1.5,16.7,6.4,19.2c4.9,2.5-26.1,12.2-24.3,25.1c1.8,12.9,18.2,12.8,12.4,23.5c-5.8,10.7,4.9,4,20.7,15.5
		c15.8,11.5,34,24.4,55.7,26.3c21.7,1.9,11.6,17.6,29.5,18.2C465.5,628.5,471.1,613.4,475.5,621.6z M303.4,573.6
		c3.8-4.8,0.4-7.8-3.9-8.5c-4.2-0.7-4-6.8-3.9-10.6c0.1-3.8-3.8-3.3-6-0.1c-2.2,3.2-4.5,0.1-12.2-4.8c-3.1-2-7.7,4.9-5.1,8.9
		c2.6,4,0.4,4.8,0.8,11.1c0.5,6.2,5.1,6.7,5.3,10.4c0.2,3.7,2.8,6.4,6.7,2.4C289.1,578.3,299.7,578.4,303.4,573.6z"/>
	<path class="st27" d="M700.3,735.9c8-1.1,14.2,7.1,12.3,11.2c-1.9,4.1-8.9,15.9-10.1,11.4c-1.2-4.5-1.9,4.5-5.4,0
		c-3.5-4.5-10.1-6.8-7.5-9.7C692.1,746,691.5,737.1,700.3,735.9z"/>
	<path class="st28" d="M711.2,928.1c21.3,5.3,19.6,15.5,19.6,15.5c-34.3,17.9-70.9,31.9-109.3,41.5v0c4.7-27.3-16.2-17.9-10.4-29.2
		c5.9-11.3,10.8-20.2-3.5-22.1c-14.3-1.9-9,4.2-26.2,11.5c-17.2,7.3-24.5,2.4-20.7-6.6c3.8-8.9-13.2,0.2-24.2,3.5
		c-11.1,3.3-19.8,6.4-23.3,1.4c-3.5-4.9-8.2,12.2,2.4,13.4c10.6,1.2,25.4-7.1,21.7-0.2c-3.8,6.8-21.9,14.6-37.2,17.4
		c-15.3,2.8-12.7-7.5-15.3-14.8c-2.6-7.3,14.1-14.8,10.1-19.1c-1.4-1.5-2-4.3-1.7-7.6c0.6-6.1,4.3-13.9,11.8-18.8
		c11.5-7.5-0.5-13.4-4.9-17.4c-4.5-4,5.2-6.4,9.7-9.9c11.3-8.7,13.8,1.5,19.2-3.5c5.3-5,20.1-11,23.2-5c3.1,6,13.2-5.3,20.7-5.3
		c7.5,0,12.2-6.6,18.8-25.1c6.6-18.5,15.7-28.2,24.8-31.1c9.1-2.8,20.4-22.3,18.8-12.9c-1.6,9.4-10,24.5-14.8,31.4
		s-12.6,1.3-17.6,19.2c-5,17.9-17.6,30.1,8.8,38.9c26.4,8.8,52.1-4.1,57.4,1.6c5.3,5.7,32.3-2.5,34.5-12.2
		c2.2-9.7,15.7-27.9,13.8-16.6c-1.9,11.3,2.5,35.2-21,43.2c-23.5,8-54.6,19.6-54.3,29C642.5,947.6,689.9,922.8,711.2,928.1z"/>
</g>
<path class="st29" d="M963.1,311.2C963.1,311.2,963.1,311.2,963.1,311.2C888.6,128.7,709.3,0,500,0C232.7,0,14.4,209.7,0.7,473.6
	C0.2,482.4,0,491.2,0,500c0,276.1,223.9,500,500,500c41.9,0,82.6-5.2,121.5-14.9c38.4-9.6,75-23.6,109.3-41.5
	c7.8-4,15.4-8.3,22.9-12.7c24.7-14.6,48-31.2,69.7-49.6c40.2-34.1,74.9-74.5,102.7-119.6c30.5-49.5,52.6-104.8,64.3-163.8
	c3.9-19.7,6.7-39.8,8.2-60.3c0.9-12.4,1.4-25,1.4-37.7C1000,433.2,986.9,369.5,963.1,311.2z"/>
<path class="st29" d="M963.1,311.2C963.1,311.2,963.1,311.2,963.1,311.2C888.6,128.7,709.3,0,500,0C232.7,0,14.4,209.7,0.7,473.6
	C0.2,482.4,0,491.2,0,500c0,276.1,223.9,500,500,500c41.9,0,82.6-5.2,121.5-14.9c38.4-9.6,75-23.6,109.3-41.5
	c7.8-4,15.4-8.3,22.9-12.7c24.7-14.6,48-31.2,69.7-49.6c40.2-34.1,74.9-74.5,102.7-119.6c30.5-49.5,52.6-104.8,64.3-163.8
	c3.9-19.7,6.7-39.8,8.2-60.3c0.9-12.4,1.4-25,1.4-37.7C1000,433.2,986.9,369.5,963.1,311.2z"/>
<path class="st29" d="M963.1,311.2C963.1,311.2,963.1,311.2,963.1,311.2C888.6,128.7,709.3,0,500,0C232.7,0,14.4,209.7,0.7,473.6
	C0.2,482.4,0,491.2,0,500c0,276.1,223.9,500,500,500c41.9,0,82.6-5.2,121.5-14.9c38.4-9.6,75-23.6,109.3-41.5
	c7.8-4,15.4-8.3,22.9-12.7c24.7-14.6,48-31.2,69.7-49.6c40.2-34.1,74.9-74.5,102.7-119.6c30.5-49.5,52.6-104.8,64.3-163.8
	c3.9-19.7,6.7-39.8,8.2-60.3c0.9-12.4,1.4-25,1.4-37.7C1000,433.2,986.9,369.5,963.1,311.2z"/>
<g>
	<g>
		<path class="st30" d="M131.6,424.5h25.3l3,21.3h2.1c5.5-8.1,12.2-14.3,20.1-18.6c7.9-4.3,17-6.4,27.1-6.4c20.7,0,34.7,8.3,41.8,25
			h1.8c5.5-7.9,12.5-14.1,21-18.4c8.5-4.4,17.9-6.6,28.1-6.6c15,0,26.8,4,35.4,12c8.5,8,12.8,21,12.8,38.9v113.1h-31.4v-107
			c0-11-2.4-18.8-7.2-23.3c-4.8-4.6-11.4-6.9-20-6.9c-10,0-18.3,4-25,11.9s-10.1,18.3-10.1,31.1v94.2H225v-107
			c0-11-2.3-18.8-6.9-23.3s-11.1-6.9-19.7-6.9c-10,0-18.4,4-25.3,11.9c-6.9,7.9-10.4,18.3-10.4,31.1v94.2h-31.4V424.5H131.6z"/>
		<path class="st30" d="M400.6,568.1c-12.6-13.6-18.9-34.8-18.9-63.4s6.3-49.8,18.9-63.4s31.8-20.4,57.6-20.4
			c23.4,0,40.9,6.4,52.5,19.1c11.6,12.7,17.4,32.9,17.4,60.5v12.2H414c0.8,17.3,4.7,30,11.7,38.3c7,8.2,17.9,12.4,32.8,12.4
			c11.6,0,20.9-2.7,28.1-8.2c7.1-5.5,10.7-13.9,10.7-25.3h30.8c0,19.1-6.5,33.7-19.4,43.8s-29.7,15.1-50.5,15.1
			C432.4,588.5,413.2,581.7,400.6,568.1z M495.4,488.8c0-28.5-12.4-42.7-37.2-42.7c-13.8,0-24.2,3.4-31.1,10.2
			c-6.9,6.8-11.1,17.6-12.5,32.5H495.4z"/>
		<path class="st30" d="M560.4,424.5h25.3l3,21.3h2.1c5.7-8.1,13.1-14.3,22.1-18.6c9-4.3,19.3-6.4,30.6-6.4
			c33.9,0,50.9,18.4,50.9,55.2v108.9H663V480c0-12-2.7-20.4-8.1-25.2c-5.4-4.8-13.3-7.2-23.6-7.2c-7.1,0-13.7,1.8-19.8,5.3
			c-6.1,3.6-10.9,8.6-14.5,15.1s-5.3,14-5.3,22.6v94.2h-31.4L560.4,424.5L560.4,424.5z"/>
		<path class="st30" d="M734.2,533.4V424.5h31.4v104.9c0,12,2.7,20.4,8.1,25.2c5.4,4.8,13.3,7.2,23.6,7.2c7.1,0,13.7-1.8,19.8-5.3
			c6.1-3.6,10.9-8.6,14.5-15.1s5.3-14,5.3-22.6v-94.2h31.4V585H843l-3-21.3h-2.1c-5.9,8.1-13.3,14.3-22.3,18.6
			c-8.9,4.3-19.1,6.4-30.5,6.4C751.2,588.5,734.2,570.2,734.2,533.4z"/>
	</g>
</g>
</svg>
