<?xml version="1.0" encoding="utf-8"?>
<!-- Generator: Adobe Illustrator 25.1.0, SVG Export Plug-In . SVG Version: 6.00 Build 0)  -->
<svg version="1.1" id="Layer_1" xmlns="http://www.w3.org/2000/svg" xmlns:xlink="http://www.w3.org/1999/xlink" x="0px" y="0px"
	 viewBox="0 0 1000 1000" style="enable-background:new 0 0 1000 1000;" xml:space="preserve">
<style type="text/css">
	.st0{fill:#F2F4FF;}
</style>
<g>
	<circle cx="500" cy="500" r="500"/>
	<g>
		<path class="st0" d="M162.4,568.1c-11.8-13.6-17.7-34.8-17.7-63.4s5.9-49.8,17.8-63.4c11.9-13.6,30.1-20.4,54.7-20.4
			c21.8,0,38.1,5.3,48.9,16c10.9,10.7,16.3,26.5,16.3,47.4h-31.7c0-13-2.6-22.6-7.8-28.7s-13.9-9.1-26.1-9.1
			c-13.8,0-23.9,4.6-30.3,13.7s-9.6,23.8-9.6,43.9v2.1c0,19.9,3.2,34.4,9.6,43.3c6.4,8.9,16.7,13.4,31,13.4c12,0,20.8-3.2,26.4-9.6
			c5.6-6.4,8.4-15.8,8.4-28.2h30.2c0,19.1-5.5,34.5-16.5,46s-27.2,17.4-48.8,17.4C192.5,588.5,174.2,581.7,162.4,568.1z"/>
		<path class="st0" d="M312.1,364.4h31.4v220.5h-31.4V364.4z"/>
		<path class="st0" d="M394.3,568c-12.7-13.7-19.1-34.8-19.1-63.3s6.4-49.6,19.1-63.3c12.7-13.7,31.8-20.6,57.2-20.6
			c25.4,0,44.5,6.9,57.3,20.6s19.2,34.8,19.2,63.3s-6.4,49.6-19.2,63.3s-31.9,20.6-57.3,20.6C426.1,588.5,407,581.7,394.3,568z
			 M485.2,549.1c7-9,10.5-23.3,10.5-42.8v-3c0-19.5-3.5-33.8-10.5-42.8s-18.2-13.6-33.7-13.6c-15.2,0-26.4,4.5-33.4,13.6
			c-7,9-10.5,23.3-10.5,42.8v3c0,19.5,3.5,33.8,10.5,42.8s18.1,13.6,33.4,13.6C467,562.6,478.2,558.1,485.2,549.1z"/>
		<path class="st0" d="M567.2,574.8c-11.5-9.1-17.2-20.6-17.2-34.5c0-2.2,0-3.7,0.2-4.4c0.1-0.7,0.2-1.2,0.2-1.4h30.8v2.7
			c0,8.7,3.6,15.3,10.7,19.7c7.1,4.4,16.2,6.6,27.1,6.6c9.8,0,17.9-1.8,24.5-5.5s9.9-8.8,9.9-15.6c0-5.3-1.8-9.6-5.5-13
			s-8.1-6-13.4-7.9c-5.3-1.9-12.9-4.2-22.9-6.9c-12.2-3-22.2-6.1-29.9-9.1s-14.3-7.6-19.7-13.7s-8.1-14.2-8.1-24.4
			c0-14.6,6-26.1,18-34.3c12-8.2,28-12.4,47.9-12.4c12.4,0,23.2,1.9,32.5,5.6c9.2,3.8,16.4,9,21.3,15.7c5,6.7,7.5,14.2,7.5,22.6
			l-0.3,6.1H650v-2.1c0-6.7-2.7-12.1-8.1-16.3c-5.4-4.2-13.7-6.3-24.9-6.3c-10.8,0-18.7,1.9-23.6,5.6c-5,3.8-7.5,8.2-7.5,13.3
			c0,6.3,3,11,9.1,14s15.8,6.1,29,9.1c12.8,3,23.3,6.2,31.4,9.3c8.1,3.2,15.1,8,21,14.6c5.9,6.6,8.8,15.4,8.8,26.4
			c0,17.1-6.2,29.7-18.4,37.8c-12.3,8.1-28.8,12.2-49.6,12.2C595.4,588.5,578.7,584,567.2,574.8z"/>
		<path class="st0" d="M727.2,568.1c-12.6-13.6-18.9-34.8-18.9-63.4s6.3-49.8,18.9-63.4c12.6-13.6,31.8-20.4,57.6-20.4
			c23.4,0,40.9,6.4,52.5,19.1s17.4,32.9,17.4,60.5v12.2H740.6c0.8,17.3,4.7,30,11.7,38.3c7,8.2,17.9,12.4,32.8,12.4
			c11.6,0,20.9-2.7,28.1-8.2c7.1-5.5,10.7-13.9,10.7-25.3h30.8c0,19.1-6.5,33.7-19.4,43.8s-29.7,15.1-50.5,15.1
			C759,588.5,739.8,581.7,727.2,568.1z M822,488.8c0-28.5-12.4-42.7-37.2-42.7c-13.8,0-24.2,3.4-31.1,10.2
			c-6.9,6.8-11.1,17.6-12.5,32.5H822z"/>
	</g>
</g>
</svg>
