<?xml version="1.0" encoding="utf-8"?>
<!-- Generator: Adobe Illustrator 25.1.0, SVG Export Plug-In . SVG Version: 6.00 Build 0)  -->
<svg version="1.1" id="Layer_1" xmlns="http://www.w3.org/2000/svg" xmlns:xlink="http://www.w3.org/1999/xlink" x="0px" y="0px"
	 viewBox="0 0 1000 1000" style="enable-background:new 0 0 1000 1000;" xml:space="preserve">
<style type="text/css">
	.st0{fill:#F2F4FF;}
</style>
<g>
	<circle class="st0" cx="500" cy="500" r="500"/>
	<g>
		<path d="M131.6,424.5h25.3l3,21.3h2.1c5.5-8.1,12.2-14.3,20.1-18.6c7.9-4.3,17-6.4,27.1-6.4c20.7,0,34.7,8.3,41.8,25h1.8
			c5.5-7.9,12.5-14.1,21-18.4c8.5-4.4,17.9-6.6,28.1-6.6c15,0,26.8,4,35.4,12c8.5,8,12.8,21,12.8,38.9v113.1h-31.4v-107
			c0-11-2.4-18.8-7.2-23.3c-4.8-4.6-11.4-6.9-20-6.9c-10,0-18.3,4-25,11.9c-6.7,7.9-10.1,18.3-10.1,31.1v94.2h-31.4v-107
			c0-11-2.3-18.8-6.9-23.3s-11.1-6.9-19.7-6.9c-10,0-18.4,4-25.3,11.9c-6.9,7.9-10.4,18.3-10.4,31.1v94.2h-31.4V424.5z"/>
		<path d="M400.6,568.1c-12.6-13.6-18.9-34.8-18.9-63.4s6.3-49.8,18.9-63.4c12.6-13.6,31.8-20.4,57.6-20.4
			c23.4,0,40.9,6.4,52.5,19.1c11.6,12.7,17.4,32.9,17.4,60.5v12.2H414c0.8,17.3,4.7,30,11.7,38.3c7,8.2,17.9,12.4,32.8,12.4
			c11.6,0,20.9-2.7,28.1-8.2c7.1-5.5,10.7-13.9,10.7-25.3h30.8c0,19.1-6.5,33.7-19.4,43.8c-12.9,10.1-29.7,15.1-50.5,15.1
			C432.4,588.5,413.2,581.7,400.6,568.1z M495.4,488.8c0-28.5-12.4-42.7-37.2-42.7c-13.8,0-24.2,3.4-31.1,10.2
			c-6.9,6.8-11.1,17.6-12.5,32.5H495.4z"/>
		<path d="M560.4,424.5h25.3l3,21.3h2.1c5.7-8.1,13.1-14.3,22.1-18.6c9-4.3,19.3-6.4,30.6-6.4c33.9,0,50.9,18.4,50.9,55.2v108.9
			h-31.4V480c0-12-2.7-20.4-8.1-25.2c-5.4-4.8-13.3-7.2-23.6-7.2c-7.1,0-13.7,1.8-19.8,5.3c-6.1,3.6-10.9,8.6-14.5,15.1
			c-3.6,6.5-5.3,14-5.3,22.6v94.2h-31.4V424.5z"/>
		<path d="M734.2,533.4V424.5h31.4v104.9c0,12,2.7,20.4,8.1,25.2c5.4,4.8,13.3,7.2,23.6,7.2c7.1,0,13.7-1.8,19.8-5.3
			c6.1-3.6,10.9-8.6,14.5-15.1c3.6-6.5,5.3-14,5.3-22.6v-94.2h31.4v160.4h-25.3l-3-21.3h-2.1c-5.9,8.1-13.3,14.3-22.3,18.6
			c-8.9,4.3-19.1,6.4-30.5,6.4C751.2,588.5,734.2,570.2,734.2,533.4z"/>
	</g>
</g>
</svg>
