<?xml version="1.0" encoding="UTF-8"?><svg id="Layer_2" xmlns="http://www.w3.org/2000/svg" viewBox="0 0 108.68 108.68"><defs><style>.cls-1{fill:#fff;stroke-width:0px;}</style></defs><g id="Layer_1-2"><path class="cls-1" d="m54.34,0C24.33,0,0,24.33,0,54.34s24.33,54.34,54.34,54.34,54.34-24.33,54.34-54.34S84.35,0,54.34,0Zm0,104.34c-27.61,0-50-22.39-50-50S26.73,4.34,54.34,4.34s50,22.39,50,50-22.39,50-50,50Z"/><polygon class="cls-1" points="68.39 68.31 68.39 40.43 50.09 54.35 68.39 68.31"/><path class="cls-1" d="m54.34,8.34c-25.36,0-46,20.64-46,46s20.64,46,46,46,46-20.64,46-46S79.71,8.34,54.34,8.34Zm29.38,66.43c0,1.35-.58,2.81-1.9,3.47s-11.52,5.57-12.63,6.12c-1.11.54-3.08.81-4.41-.4s-24.43-22.27-24.43-22.27c0,0-9.25,7.03-10.27,7.8-1.02.77-2.33,1.09-3.39.16-1.06-.93-2.89-2.56-3.76-3.43s-.73-2.66.4-3.67c1.13-1.01,9.03-8.21,9.03-8.21,0,0-8.33-7.6-9.17-8.36-1.01-.91-1.2-2.63,0-3.72.97-.89,2.62-2.43,3.42-3.13.8-.71,2.21-.83,3.26-.06,1.05.77,10.49,7.96,10.49,7.96,0,0,23.82-21.76,24.64-22.45.82-.69,1.8-.71,2.31-.71,1.2,0,2.95.99,2.95.99,0,0,10.43,5.03,11.42,5.54.99.51,2.03,1.66,2.03,3.44v40.93Z"/></g></svg>